<svg width="163" height="136" viewBox="0 0 163 136" fill="none" xmlns="http://www.w3.org/2000/svg">
<path opacity="0.1" d="M98.152 116.035H6.33348C2.8337 116.035 0 113.201 0 109.701C0 106.201 2.8337 103.368 6.33348 103.368H53.0725C58.0512 103.368 62.0929 99.326 62.0929 94.3472C62.0929 89.3685 58.0512 85.3269 53.0725 85.3269H29.9514C24.8597 85.3269 20.739 81.2062 20.739 76.1146C20.739 71.0229 24.8597 66.9022 29.9514 66.9022H32.3899C36.7929 66.9022 40.3717 63.3347 40.3717 58.9205C40.3717 54.5176 36.8042 50.9388 32.3899 50.9388H6.92054C3.10465 50.9388 0 47.8454 0 44.0182C0 40.2024 3.09336 37.0977 6.92054 37.0977H17.5441C20.8406 37.0977 23.5163 34.4221 23.5163 31.1255C23.5163 27.829 20.8406 25.1533 17.5441 25.1533H15.399C11.4477 25.1533 8.24142 21.9471 8.24142 17.9957C8.24142 14.0444 11.4477 10.8381 15.399 10.8381H98.1632C127.211 10.8381 150.762 34.3882 150.762 63.4363C150.75 92.4845 127.2 116.035 98.152 116.035Z" fill="#2A94F4"/>
<path d="M68.6819 109.108C74.8347 105.608 75.3362 108.843 76.6583 109.108L75.5686 114.696C86.0115 120.115 80.7593 120.623 80.0844 122.542L62.1339 122.542L58.3519 118.986L68.6819 109.108Z" fill="#FFBE55"/>
<path d="M68.6819 109.108C74.8347 105.608 75.3362 108.843 76.6583 109.108L75.5686 114.696C86.0115 120.115 80.7593 120.623 80.0844 122.542L62.1339 122.542L58.3519 118.986L68.6819 109.108Z" fill="#FFBE55"/>
<path d="M131.452 106.285C134.444 107.697 135.441 111.321 137.582 111.386L140.371 113.68C147.257 115.599 151.717 116.164 149.628 122.703L114.79 122.703C113.902 118.766 114.475 115.891 117.735 109.39L131.452 106.285Z" fill="#FFBE55"/>
<path d="M80.6485 103.012L76.9231 108.374C74.429 106.808 72.6311 106.794 68.6816 108.374L73.0287 99.4093L80.6485 103.012Z" fill="#CCE9FF"/>
<path d="M130.943 11.2835C130.943 11.2835 129.588 9.13848 123.548 3.77593C114.629 0.135807 116.966 -0.293231 112.88 0.135775C107.415 0.677678 104.819 8.44495 104.142 12.2157C103.509 15.6703 102.268 13.7898 104.977 18.5089C107.687 23.2279 128.617 11.6448 129.814 11.848C130.988 12.0287 130.943 11.2835 130.943 11.2835Z" fill="#0B4870"/>
<path d="M90.979 81.6746L96.6803 63.0468C96.6803 63.0468 110.109 66.3647 116.381 71.6833C118.694 78.0388 124.17 99.5681 124.17 99.5681L115.421 102.052C115.421 102.052 105.105 91.8461 104.47 82.7473L90.979 81.6746Z" fill="#FCD2B1"/>
<path d="M109.027 30.2784C109.772 29.9736 102.553 17.1824 102.553 17.1824C102.553 17.1824 104.768 18.7347 108.971 16.1945C108.971 16.1945 109.314 18.7705 109.027 16.7045C108.434 12.5386 111.77 13.2837 112.244 14.4861C112.109 13.741 114.175 18.7536 115.97 16.7045C117.29 15.2143 118.904 8.42738 126.71 12.4408C126.71 12.4408 124.521 16.7045 126.71 21.8676C124.661 23.9844 124.521 20.6258 125.017 23.8433C124.306 24.8424 124.571 23.9618 124.283 25.0287L124.001 26.327L122.42 27.0608C122.42 27.0608 122.42 29.8832 120.9 29.8832C119.38 29.8832 108.281 30.5832 109.027 30.2784Z" fill="#FCD2B1"/>
<path d="M110.132 31.3503C110.132 31.3503 114.693 48.1997 117.002 52.298C119.312 56.3963 132.573 72.0839 132.573 72.0839C132.573 72.0839 134.061 75.7898 133.965 77.726C133.87 79.6621 135.848 80.2964 135.848 80.2964C137.093 79.7973 135.277 78.0638 135.504 76.8234C135.744 75.592 139.829 81.7887 140.544 84.7261C140.544 84.7261 146.25 85.5972 146.354 83.6498C144.209 76.8234 139.139 72.0662 137.266 70.1023C133.965 62.4254 130.323 58.0789 127.839 56.4419C125.976 49.6117 121.857 45.5879 120.783 42.217C120.783 36.4593 119.169 30.479 119.169 30.479C116.875 28.5275 113.987 29.2284 110.132 31.3503Z" fill="#EFCCB1"/>
<path d="M124.396 95.617L129.024 106.963C128.473 111.75 125.93 111.969 119.021 109.74L114.123 100.754L119.021 101.431L124.396 95.617Z" fill="#CCE9FF"/>
<path d="M103.566 55.7081C96.623 69.82 91.1759 60.2239 74.7776 60.2239C58.3794 60.2239 52.029 61.24 51.2388 58.0224C55.2466 40.8058 82.6804 18.9604 101.647 17.775C113.614 23.8714 107.235 47.1844 103.566 55.7081Z" fill="#FFBE55"/>
<path d="M78.8682 77.199C83.0201 90.7296 72.2948 81.5935 62.0772 81.5935C51.8596 81.5935 48.0217 69.312 50.11 62.6275C52.4482 55.1436 50.7608 59.7943 60.9784 59.7943C97.6136 55.8803 74.7162 63.6684 78.8682 77.199Z" fill="#FDD89D"/>
<path d="M106.727 26.6942C106.727 26.6942 113.105 32.1687 113.105 42.2175C113.105 42.2175 124.056 52.9978 124.056 58.531C124.056 58.531 132.806 65.867 145.959 85.1731C148.725 86.5279 145.959 97.3673 144.265 97.3673C141.895 97.3673 137.266 94.7137 138.225 83.9327C131.339 77.4398 122.828 70.8932 121.065 68.6916C99.953 42.3304 127.273 71.007 115.533 61.5227C103.793 52.0384 92.7853 32.1687 92.7853 32.1687C94.331 25.5552 98.1464 21.9501 106.727 26.6942Z" fill="#FCD2B1"/>
<path d="M100.8 35.2743C101.986 39.2257 97.3586 39.9174 92.7846 40.5239C84.4867 41.624 84.0825 37.1923 83.558 33.2366C83.558 27.5973 91.6943 24.8231 96.2683 24.2167C100.842 23.6103 100.276 31.3186 100.8 35.2743Z" fill="#FCD2B1"/>
<path d="M77.0932 75.521L81.4953 61.8044C81.4953 61.8044 98.1392 60.7763 103.171 69.0862C103.798 81.2215 80.2469 103.237 80.2469 103.237L72.6895 99.5681C72.6895 99.5681 82.3501 71.1655 89.1158 72.7553L85.164 74.5616L80.2469 80.5451L77.0932 75.521Z" fill="#FCD2B1"/>
</svg>
