<svg width="144" height="193" viewBox="0 0 144 193" fill="none" xmlns="http://www.w3.org/2000/svg">
<path opacity="0.1" d="M143.136 157.613C143.136 140.084 115.163 136.72 128.621 123.188C142.08 109.675 150.317 83.6887 134.486 75.0825C118.638 66.4763 100.846 60.8627 105.409 51.1599C109.972 41.457 72.5052 6.67894 51.5286 25.1182C30.5521 43.5574 51.7277 69.4875 52.6464 71.5508C53.565 73.5955 39.448 103.838 25.3462 83.7073C11.2445 63.5766 -14.402 108.875 13.1584 118.318C21.35 121.125 34.4259 133.969 24.4276 151.646C14.4292 169.323 37.4116 203.06 69.9788 184.287C102.546 165.513 112.636 203.655 128.652 188.302C138.865 178.506 143.136 175.141 143.136 157.613Z" fill="#2A94F4"/>
<path opacity="0.1" d="M78.7696 187.844C114.542 187.844 143.542 183.691 143.542 178.567C143.542 173.443 114.542 169.29 78.7696 169.29C42.9967 169.29 13.9971 173.443 13.9971 178.567C13.9971 183.691 42.9967 187.844 78.7696 187.844Z" fill="#2A94F4"/>
<path d="M45.809 66.6583C51.3639 66.6583 55.8671 62.1551 55.8671 56.6003C55.8671 51.0454 51.3639 46.5422 45.809 46.5422C40.2541 46.5422 35.751 51.0454 35.751 56.6003C35.751 62.1551 40.2541 66.6583 45.809 66.6583Z" fill="#0B4870"/>
<path d="M46.957 61.2849C52.5119 61.2849 57.015 56.7817 57.015 51.2268C57.015 45.6719 52.5119 41.1688 46.957 41.1688C41.4021 41.1688 36.8989 45.6719 36.8989 51.2268C36.8989 56.7817 41.4021 61.2849 46.957 61.2849Z" fill="#0B4870"/>
<path d="M50.9685 63.6731C55.7963 63.6731 59.71 59.7594 59.71 54.9316C59.71 50.1039 55.7963 46.1902 50.9685 46.1902C46.1407 46.1902 42.2271 50.1039 42.2271 54.9316C42.2271 59.7594 46.1407 63.6731 50.9685 63.6731Z" fill="#0B4870"/>
<path d="M62.4041 73.1186C62.4041 73.1186 63.2614 59.4783 69.2932 55.5592C75.325 51.6401 82.6427 45.9451 86.0566 44.8429L84.9237 41.6433C84.9237 41.6433 67.0428 47.92 63.6289 52.3749C60.2149 56.8298 50.1875 69.1077 50.509 69.4904C50.8458 69.8731 62.4041 73.1186 62.4041 73.1186Z" fill="#FCD2B1"/>
<path d="M60.031 62.341L64.4706 65.0201C64.4706 65.0201 61.9293 73.0573 62.2508 74.3739L52.9429 68.3574L53.8002 63.2442L57.3366 59.9069L60.031 62.341Z" fill="#2A94F4"/>
<path d="M31.5871 99.8175C31.5871 99.8175 41.7676 94.9186 44.1711 86.4221L40.1908 81.217C40.1908 81.217 33.6079 89.6217 31.4493 89.1777C29.2908 88.7338 27.3924 99.6032 31.5871 99.8175Z" fill="#FCD2B1"/>
<path d="M39.9917 170.622L37.037 173.607C36.6849 173.959 36.394 174.204 36.7614 174.587L40.8796 181.047C42.3186 183.297 44.2629 185.165 46.5592 186.497C47.4012 186.987 48.4576 186.88 49.1771 186.222C50.3559 185.165 50.6467 183.405 49.7588 182.103C49.2689 181.369 47.7993 179.914 47.7993 179.914C47.7993 179.914 44.3088 177.404 46.3296 176.225C47.4931 175.551 46.0694 173.806 46.0694 173.806L46.3602 173.561C45.4264 174.495 43.8189 174.28 42.9769 173.117C42.4105 172.321 42.2727 171.923 41.446 170.805C41.1092 170.3 40.3897 170.208 39.9917 170.622Z" fill="#0B4870"/>
<path d="M60.1538 118.617C61.5469 118.602 90.6953 132.916 97.3701 134.094C97.3701 134.094 95.0431 151.838 100.355 169.137L104.979 168.8C104.979 168.8 108.454 139.284 107.474 131.216C106.494 123.148 81.7702 109.064 81.7702 109.064L60.1538 118.617Z" fill="#FFBE55"/>
<path d="M78.7693 112.249C78.7693 112.249 76.3198 145.24 71.6812 156.507C69.8747 160.885 49.8811 171.739 44.8904 174.388C44.2321 174.74 43.4207 174.602 42.9155 174.051L41.7367 172.78C41.1397 172.137 41.155 171.158 41.7673 170.53C45.7324 166.412 59.5718 152.22 63.6746 150.383C63.6746 150.383 62.3886 141.78 61.7609 134.309C61.1333 126.838 55.6986 118.25 55.6986 118.25C55.6986 118.25 48.1206 95.1791 78.7693 112.249Z" fill="#FFBE55"/>
<path d="M54.1524 64.6374L54.0758 70.4089C54.0452 72.6134 52.2541 74.3893 50.0496 74.3893C48.09 74.3893 46.605 72.644 46.9112 70.7151L47.891 64.6068L54.1524 64.6374Z" fill="#FCD2B1"/>
<path d="M50.5245 68.8167C50.5245 68.8167 42.8547 71.9704 42.3188 75.9048C41.7983 79.8392 51.1215 91.8874 52.484 101.195C53.8465 110.503 53.0658 112.983 55.6836 118.234C55.6836 118.234 71.2835 120.071 78.3563 115.616C80.7445 114.116 83.5154 111.544 83.3011 109.967C83.0715 108.283 79.6729 105.007 79.6729 105.007C79.6729 105.007 64.7925 81.3854 63.185 75.1394C61.2561 67.6533 51.9023 67.9747 50.5245 68.8167Z" fill="#2A94F4"/>
<path d="M98.5184 168.57V172.765C98.5184 173.255 98.4878 173.653 99.0236 173.653H116.139V171.402C116.139 171.402 115.067 168.938 111.837 169.366C108.622 169.795 109.235 168.295 107.597 166.565C106.678 165.585 105.132 166.136 105.132 166.136C105.132 167.453 103.831 168.448 102.422 168.203C101.458 168.034 101.09 167.851 99.7125 167.636C99.0848 167.56 98.5184 167.989 98.5184 168.57Z" fill="#0B4870"/>
<path d="M51.4429 46.5576C51.4429 46.5576 57.7043 49.2673 59.1893 58.7742C60.6743 68.2811 51.4123 67.6534 47.9219 64.8059C47.9219 64.8059 46.2532 65.6633 44.6304 64.1936C43.0076 62.7239 41.1246 58.7589 44.4008 58.8201C44.4008 58.8201 46.0388 59.3253 46.7124 60.3663C47.4013 61.4073 49.5293 62.7239 48.6873 60.6419C47.8453 58.5599 41.8135 50.094 51.4429 46.5576ZM23.1308 75.8511C23.1308 75.8511 31.633 89.4534 33.363 95.3627C34.6948 99.8789 27.668 103.186 25.6931 97.0314C23.7336 90.8772 20.9014 76.9153 20.9014 76.9153L23.1308 75.8511Z" fill="#FFE3CA"/>
<path d="M21.9111 77.0766C21.9111 77.0766 21.0691 77.8574 20.518 76.1428C19.9669 74.4282 19.7526 71.0908 20.2884 70.2182C20.8242 69.3456 21.5437 66.5134 23.1665 67.0646C24.7892 67.6157 24.5902 69.0088 24.3759 70.2488C24.1616 71.5042 23.6717 73.5862 24.1616 75.0865C24.6514 76.6021 21.9111 77.0766 21.9111 77.0766Z" fill="#FFE3CA"/>
<path d="M23.3906 76.9499C23.5743 77.0724 23.8192 77.0418 23.9723 76.8887C24.5694 76.2763 25.9778 74.9444 25.5185 73.7962C25.3348 73.337 25.5797 72.5715 25.5491 72.2653C25.5185 71.9592 24.8296 71.6683 24.7377 72.4644C24.6459 73.2451 24.0182 74.133 23.5743 74.4852C23.2068 74.776 22.7016 75.817 22.7016 75.817C22.7016 75.817 22.1658 76.0773 23.3906 76.9499Z" fill="#FFE3CA"/>
<path d="M84.9238 41.6278L86.9905 40.7093L90.037 38.5507L90.1442 38.5201C91.3383 38.1068 92.6396 38.1986 93.7571 38.7957L93.9408 38.8875C94.9359 39.4234 95.5636 40.4491 95.5636 41.5819C95.5636 42.5617 94.7675 43.3731 93.7724 43.3731H91.124L86.0567 44.8427L84.9238 41.6278Z" fill="#FCD2B1"/>
<path d="M42.8848 74.3892L36.6387 84.2329L41.8744 92.1017C41.8744 92.1017 47.8449 85.3505 48.3654 83.8502C48.8859 82.3193 49.0084 72.6746 42.8848 74.3892Z" fill="#2A94F4"/>
<g clip-path="url(#clip0_910_9982)">
<g filter="url(#filter0_d_910_9982)">
<path d="M104.614 17.9151C104.57 21.7785 102.758 25.2092 99.8898 27.3637C97.916 28.8462 95.4627 29.7249 92.8039 29.7249C86.2814 29.7249 80.9941 24.4376 80.9941 17.9151C80.9941 11.3926 86.2822 6.02469 92.8039 6.10539C99.4347 6.18766 104.687 11.4485 104.614 17.9151Z" fill="#FFD55D"/>
</g>
<path d="M92.8043 6.10526C89.2243 6.06117 86.0184 7.66099 83.8525 10.1902C83.5312 11.2677 83.3564 12.4069 83.3564 13.5848C83.3564 20.1073 88.6437 25.3945 95.1662 25.3945C97.825 25.3945 100.278 24.5158 102.252 23.0333C102.932 22.5228 103.55 21.9386 104.101 21.2961C104.422 20.2246 104.601 19.0905 104.614 17.915C104.687 11.448 99.4351 6.18753 92.8043 6.10526Z" fill="#FFD55D"/>
<path d="M104.614 17.9148C104.658 14.0542 102.803 10.6247 99.8907 8.46899C100.856 13.1319 100.012 18.2045 97.5283 22.245L98.2349 24.9881L101.657 25.7187C103.482 23.6374 104.58 20.9074 104.614 17.9148Z" fill="#FFC239"/>
<path d="M96.5415 6.73279V24.632H99.3239C100.379 24.2348 101.365 23.699 102.252 23.0334C102.931 22.5228 103.549 21.9386 104.101 21.2962C104.421 20.2246 104.601 19.0905 104.614 17.915C104.672 12.7262 101.301 8.31687 96.5415 6.73279Z" fill="#FFD55D"/>
<path d="M96.5415 6.73279L97.5272 22.2445C98.3146 22.835 102.054 23.8191 103.038 23.8191C103.826 22.6382 103.849 22.138 104.101 21.2962C104.421 20.2246 104.601 19.0905 104.614 17.915C104.672 12.7262 101.301 8.31687 96.5415 6.73279Z" fill="#FFD55D"/>
<path d="M99.8748 8.45931C97.9113 7.01026 95.4698 6.13831 92.8039 6.10563C86.2822 6.02493 80.9941 11.3929 80.9941 17.9154L81.6827 17.1658C84.976 13.5812 89.8172 11.6936 94.7659 12.053C94.7659 12.053 97.8412 10.0619 99.9162 8.67543L99.8748 8.45931Z" fill="#CCCCCC"/>
<path d="M95.9118 6.5413C94.9233 6.27125 93.8825 6.1189 92.8043 6.10552C89.2243 6.06104 86.0184 7.66086 83.8525 10.1901C83.5312 11.2676 83.3564 12.4068 83.3564 13.5846C83.3564 14.6255 83.4923 15.6344 83.7454 16.5961H95.9118V6.5413Z" fill="#F2F2F2"/>
<path d="M103.018 23.8186C99.4338 23.612 96.1491 21.9712 93.932 19.2309L92.8038 17.9149L89.0471 17.778L86.8989 19.8832C89.4124 23.6537 93.3628 26.2278 97.8273 27.0045L99.8897 27.3635C101.162 26.4085 102.224 25.2019 103.018 23.8186Z" fill="#F2F2F2"/>
<path d="M93.932 19.2312L92.8038 17.9152L89.0471 17.7782L86.8989 19.8835C88.3456 22.0533 90.2694 23.824 92.492 25.0868C93.3514 25.286 94.2458 25.3947 95.1658 25.3947C97.4506 25.3947 99.5819 24.7424 101.39 23.6189C98.4501 23.0772 95.8082 21.5498 93.932 19.2312Z" fill="#F2F2F2"/>
<path d="M94.7653 12.0527C90.6657 11.7555 86.6429 13.0038 83.5098 15.4779C83.8219 17.4135 84.603 19.1913 85.7347 20.6911C86.9094 19.7916 88.1951 19.0724 89.5587 18.6496L92.8045 17.915L93.8059 15.7873C94.3988 14.6492 94.7169 13.3754 94.7653 12.0527Z" fill="#173E67"/>
<path d="M81.6827 17.1659L80.9941 17.9154C80.9941 20.066 81.572 22.0807 82.5763 23.8175C83.4955 22.6716 84.5591 21.5914 85.7338 20.6915C84.602 19.1916 83.8206 17.4139 83.5088 15.4783C82.8609 15.9904 82.2476 16.551 81.6827 17.1659Z" fill="#112F4D"/>
<path d="M83.5098 15.4785L83.5108 15.4775L83.5098 15.4785Z" fill="#FFC239"/>
<path d="M97.5304 22.2252C100.012 18.1855 100.854 13.1147 99.89 8.45345C98.0228 7.07132 95.7211 6.2159 93.2056 6.10449L93.5615 6.76584C95.0846 9.77889 95.1767 13.1392 93.8052 15.7715L92.8037 17.8993L93.9319 19.2153C94.9358 20.4561 96.1601 21.4674 97.5304 22.2252Z" fill="#1F5389"/>
</g>
<defs>
<filter id="filter0_d_910_9982" x="78.8341" y="3.94449" width="32.2601" height="32.2604" filterUnits="userSpaceOnUse" color-interpolation-filters="sRGB">
<feFlood flood-opacity="0" result="BackgroundImageFix"/>
<feColorMatrix in="SourceAlpha" type="matrix" values="0 0 0 0 0 0 0 0 0 0 0 0 0 0 0 0 0 0 127 0" result="hardAlpha"/>
<feOffset dx="2.16" dy="2.16"/>
<feGaussianBlur stdDeviation="2.16"/>
<feComposite in2="hardAlpha" operator="out"/>
<feColorMatrix type="matrix" values="0 0 0 0 0.5625 0 0 0 0 0.5625 0 0 0 0 0.5625 0 0 0 0.1 0"/>
<feBlend mode="normal" in2="BackgroundImageFix" result="effect1_dropShadow_910_9982"/>
<feBlend mode="normal" in="SourceGraphic" in2="effect1_dropShadow_910_9982" result="shape"/>
</filter>
<clipPath id="clip0_910_9982">
<rect width="34.56" height="34.56" fill="white" transform="translate(75.5234 0.633545)"/>
</clipPath>
</defs>
</svg>
