<svg width="126" height="194" viewBox="0 0 126 194" fill="none" xmlns="http://www.w3.org/2000/svg">
<path d="M54.418 38.5529C55.3786 40.213 57.951 40.5209 60.1636 39.2405C62.3762 37.9602 66.1384 36.4518 65.1777 34.7917C64.2702 31.9192 64.1144 31.7482 61.9018 33.0286C55.7532 30.5087 53.4573 36.8928 54.418 38.5529Z" fill="#BB925E"/>
<path opacity="0.14" d="M62.6579 132.294C28.0528 132.294 -9.91821e-05 104.138 -9.91821e-05 69.4068C-9.91821e-05 34.6752 28.0528 6.51965 62.6579 6.51965C97.263 6.51965 125.316 34.6752 125.316 69.4068C125.316 104.138 97.263 132.294 62.6579 132.294Z" fill="#FFBE55"/>
<path d="M69.209 44.267C69.209 44.267 72.5868 40.2861 65.6311 34.8425C62.5572 34.8425 59.8351 43.5113 54.8966 37.4635C53.9912 33.3812 59.0794 32.0683 62.5572 32.0681C59.935 28.2383 58.5754 28.946 53.9913 32.0683C51.934 33.8299 48.5923 37.5931 49.9056 41.8982C51.219 46.2033 62.0435 47.3296 69.209 44.267Z" fill="#0B4870"/>
<g clip-path="url(#clip0_860_8811)">
<g filter="url(#filter0_d_860_8811)">
<path d="M73.4396 13.6307C73.4051 16.6779 71.9762 19.3839 69.7136 21.0833C68.1567 22.2526 66.2217 22.9457 64.1246 22.9457C58.9799 22.9457 54.8096 18.7754 54.8096 13.6307C54.8096 8.48607 58.9805 4.25212 64.1246 4.31577C69.3546 4.38067 73.4973 8.53016 73.4396 13.6307Z" fill="#FFD55D"/>
</g>
<path d="M64.1258 4.31564C61.3021 4.28087 58.7734 5.54273 57.0651 7.53768C56.8117 8.38751 56.6738 9.2861 56.6738 10.2151C56.6738 15.3597 60.8442 19.53 65.9888 19.53C68.0859 19.53 70.021 18.837 71.5778 17.6677C72.1137 17.265 72.6012 16.8042 73.0362 16.2975C73.289 15.4523 73.4303 14.5577 73.4408 13.6306C73.4986 8.52972 69.3559 4.38054 64.1258 4.31564Z" fill="#FFD55D"/>
<path d="M73.441 13.6313C73.4755 10.5863 72.0124 7.8812 69.7154 6.18091C70.4764 9.85876 69.811 13.8598 67.8521 17.0468L68.4094 19.2103L71.1089 19.7866C72.5484 18.145 73.4143 15.9917 73.441 13.6313Z" fill="#FFC239"/>
<path d="M67.0737 4.81104V18.9291H69.2683C70.1002 18.6158 70.8786 18.1932 71.5778 17.6681C72.1138 17.2654 72.6013 16.8046 73.0363 16.2979C73.289 15.4527 73.4303 14.5582 73.4408 13.631C73.4868 9.53837 70.8277 6.06048 67.0737 4.81104Z" fill="#FFD55D"/>
<path d="M67.0737 4.81104L67.8512 17.0459C68.4722 17.5117 71.422 18.2879 72.1982 18.2879C72.8192 17.3564 72.8377 16.9619 73.0363 16.2979C73.289 15.4527 73.4303 14.5582 73.4408 13.631C73.4868 9.53837 70.8277 6.06048 67.0737 4.81104Z" fill="#FFD55D"/>
<path d="M69.7018 6.17224C68.153 5.0293 66.2273 4.34154 64.1246 4.31577C58.9805 4.25212 54.8096 8.48607 54.8096 13.6307L55.3526 13.0395C57.9503 10.2121 61.7688 8.72329 65.6721 9.00678C65.6721 9.00678 68.0977 7.43628 69.7344 6.3427L69.7018 6.17224Z" fill="#CCCCCC"/>
<path d="M66.5769 4.65938C65.7972 4.44637 64.9763 4.32621 64.1258 4.31565C61.3021 4.28057 58.7734 5.54243 57.0651 7.53738C56.8117 8.38722 56.6738 9.2858 56.6738 10.2148C56.6738 11.0358 56.781 11.8316 56.9806 12.5901H66.5769V4.65938Z" fill="#F2F2F2"/>
<path d="M72.1823 18.2874C69.3552 18.1244 66.7644 16.8303 65.0157 14.6689L64.1258 13.6309L61.1627 13.5228L59.4683 15.1834C61.4508 18.1573 64.5667 20.1877 68.088 20.8003L69.7148 21.0835C70.718 20.3302 71.556 19.3785 72.1823 18.2874Z" fill="#F2F2F2"/>
<path d="M65.0157 14.6689L64.1258 13.6309L61.1627 13.5228L59.4683 15.1834C60.6093 16.8948 62.1268 18.2915 63.8798 19.2875C64.5577 19.4446 65.2631 19.5303 65.9888 19.5303C67.7909 19.5303 69.4719 19.0158 70.8978 18.1297C68.5793 17.7024 66.4955 16.4977 65.0157 14.6689Z" fill="#F2F2F2"/>
<path d="M65.6718 9.00596C62.4382 8.77154 59.2652 9.75613 56.7939 11.7076C57.0402 13.2343 57.6562 14.6365 58.5489 15.8195C59.4754 15.11 60.4895 14.5428 61.5651 14.2093L64.1252 13.6299L64.9151 11.9517C65.3827 11.054 65.6336 10.0492 65.6718 9.00596Z" fill="#173E67"/>
<path d="M55.3531 13.0391L54.8101 13.6303C54.8101 15.3266 55.2659 16.9157 56.058 18.2856C56.783 17.3817 57.6219 16.5297 58.5485 15.8199C57.6558 14.6369 57.0394 13.2347 56.7935 11.708C56.2824 12.112 55.7987 12.5541 55.3531 13.0391Z" fill="#112F4D"/>
<path d="M56.7939 11.7086L56.7946 11.708L56.7939 11.7086Z" fill="#FFC239"/>
<path d="M67.8537 17.0301C69.8111 13.8438 70.4755 9.84429 69.7148 6.16768C68.2421 5.07752 66.4266 4.40281 64.4425 4.31494L64.7232 4.83658C65.9245 7.21313 65.9972 9.86354 64.9154 11.9398L64.1255 13.6181L65.0154 14.6561C65.8072 15.6348 66.7728 16.4324 67.8537 17.0301Z" fill="#1F5389"/>
</g>
<path d="M40.4308 46.434C40.4308 46.434 30.8737 34.6818 34.081 28.4416C38.7178 19.42 42.5479 9.01297 46.8841 8.13098C51.2202 7.249 55.2487 10.6001 55.2487 10.6001C54.9087 15.2403 58.071 19.4201 57.8195 20.0248C57.568 20.6296 60.8439 22.7464 56.7611 20.0248C52.6783 17.3033 52.1827 12.2915 49.4027 12.8176C48.0089 13.7754 46.7444 15.9294 44.4144 20.0254C43.1515 24.3101 42.342 26.9041 40.7842 31.7176C42.5482 33.4312 46.884 39.379 46.884 39.379L40.4308 46.434Z" fill="#BB925E"/>
<path d="M92.0064 39.3278C92.0064 39.3278 97.333 30.7049 97.7362 25.4129C98.2777 18.3058 79.6426 3.43844 78.3826 3.43844C77.1226 3.43844 71.7805 8.52861 71.7805 8.52861C72.7271 12.9197 71.1762 17.5452 71.0749 18.2055C70.9736 18.8657 71.0749 19.1176 71.8809 18.8154C72.6869 18.5132 76.81 9.36086 79.5418 9.48645C81.0042 10.2131 81.551 11.6316 84.3298 15.232C86.1122 19.1578 86.075 21.0215 88.2106 25.4129C87.001 29.5457 84.8844 33.4577 84.8844 33.4577L92.0064 39.3278Z" fill="#BB925E"/>
<path d="M69.9653 48.1985C69.9653 48.1985 74.218 43.1308 76.9204 40.4368C82.1521 38.3036 85.0348 32.6248 85.0348 32.6248C87.108 32.939 88.9303 34.8564 92.6957 39.6304C92.6957 39.6304 85.3822 47.5062 81.4566 48.1985C77.5309 48.8908 69.9653 48.1985 69.9653 48.1985Z" fill="#FFBE55"/>
<path d="M49.7507 152.005C52.3715 154.121 56.3303 160.8 58.0195 155.659L59.5819 158.28L56.2051 161.354C55.2475 162.009 55.1969 174.155 53.0801 175.315C45.9244 178.188 47.9784 171.471 47.0285 165.361L44.5085 151.198C45.3652 149.585 47.734 149.409 49.7502 149.409L49.7507 152.005Z" fill="#FFBE55"/>
<path d="M66.7159 149.855C63.8042 151.961 62.0291 153.552 58.533 156.963C53.8361 161.108 53.1006 151.74 55.9806 148.693L62.2574 143.187C62.3672 144.696 62.5443 145.628 63.1097 147.45C64.2463 148.932 65.0627 149.401 66.7159 149.855Z" fill="#CCE9FF"/>
<path d="M71.1745 124.366L87.7057 124.366C87.7057 124.366 83.5225 130.768 82.286 139.533C78.9858 141.098 72.7362 144.778 72.7362 144.778C69.7016 147.437 67.4928 149.142 64.6721 151.129C62.5757 151.008 61.3457 150.424 60.1365 148.508C61.3406 145.887 62.2268 144.755 63.9165 142.913C65.2366 141.373 65.7861 140.66 66.2857 139.533C66.2857 139.533 65.5801 136.614 70.5193 133.338L71.1745 124.366Z" fill="#BB925E"/>
<path d="M55.9534 126.03L69.9651 123.957C69.9651 123.957 67.8982 133.943 65.5798 140.343C62.0518 144.073 58.7254 150.121 58.7254 150.121C56.659 152.842 55.4998 156.875 53.8359 159.798C48.5935 160.605 48.4417 158.639 47.6369 156.875C47.6369 154.153 48.5705 146.117 50.2601 144.275C51.5803 142.735 53.3363 140.714 53.8359 139.588L55.4998 137.269L55.9534 126.03Z" fill="#BB925E"/>
<path d="M73.1908 90.0883C74.2089 91.5701 72.1826 125.124 72.1826 125.124C72.1826 125.124 87.2522 121.343 75.8618 123.964C64.4713 126.584 58.0949 126.029 54.6937 125.93C53.442 127.93 56.3474 95.0971 56.4781 92.187C56.6087 89.277 72.1123 88.3042 73.1908 90.0883Z" fill="#0B4870"/>
<path d="M87.0509 87.5179C89.1172 90.6313 90.3265 124.645 89.6714 124.818C81.4019 125.623 76.7719 125.577 68.5034 124.818C68.5034 124.818 65.6106 94.6138 66.5077 91.4184C69.3805 89.8359 84.9845 84.4045 87.0509 87.5179Z" fill="#0B4870"/>
<path d="M45.1693 168.057C47.7901 170.174 50.6873 172.391 52.3765 167.251L52.3765 170.627L51.3679 176.423C52.2018 182.752 55.6556 190.97 49.5534 191.543C44.6568 190.09 43.3969 187.523 42.447 181.413L39.9271 167.251C40.7837 165.638 42.7501 163.723 44.7663 163.723L45.1693 168.057Z" fill="#FFBE55"/>
<path d="M54.4423 159.691C53.1884 163.059 52.594 165.367 51.5777 170.145C47.9327 172.457 44.1605 168.813 44.8663 164.68L47.0335 156.616C47.962 157.811 48.6264 158.488 50.1078 159.691C51.8756 160.293 52.8152 160.23 54.4423 159.691Z" fill="#CCE9FF"/>
<path d="M69.1084 44.0657C69.1084 44.0657 69.5621 44.0657 70.1164 46.7872C55.8532 51.9786 57.1457 46.9372 55.8532 45.9304C56.6596 44.368 53.2829 45.8295 53.2829 43.2088C53.2829 41.7615 54.8267 41.64 56.7605 42.2008C58.7186 42.7644 59.1767 45.4353 61.6492 44.9225C64.1461 44.4124 69.1084 44.0657 69.1084 44.0657Z" fill="#BB925E"/>
<path d="M52.5269 48.9163C55.7122 48.8068 76.7595 45.2648 85.2869 39.6054C99.7518 35.4067 89.4702 46.1786 85.2869 51.838C83.6741 55.899 87.555 89.3553 87.555 89.3553C87.555 89.3553 65.8325 91.2723 56.2061 93.6L57.1653 72.1924C57.1653 72.1924 49.1289 63.9411 49.8043 55.899C47.8398 53.8914 51.8179 61.8204 52.5269 48.9163Z" fill="#FFBE55"/>
<path d="M65.026 47.7762C65.026 47.7762 62.3045 49.1911 57.1636 46.2616C49.7044 43.7597 47.1844 38.1456 47.1844 38.1456L39.5739 46.2616C39.5739 46.2616 48.8979 57.1328 51.4179 60.0996C55.3626 61.9049 65.026 47.7762 65.026 47.7762Z" fill="#FFBE55"/>
<defs>
<filter id="filter0_d_860_8811" x="53.1059" y="2.61136" width="25.4452" height="25.4454" filterUnits="userSpaceOnUse" color-interpolation-filters="sRGB">
<feFlood flood-opacity="0" result="BackgroundImageFix"/>
<feColorMatrix in="SourceAlpha" type="matrix" values="0 0 0 0 0 0 0 0 0 0 0 0 0 0 0 0 0 0 127 0" result="hardAlpha"/>
<feOffset dx="1.7037" dy="1.7037"/>
<feGaussianBlur stdDeviation="1.7037"/>
<feComposite in2="hardAlpha" operator="out"/>
<feColorMatrix type="matrix" values="0 0 0 0 0.5625 0 0 0 0 0.5625 0 0 0 0 0.5625 0 0 0 0.1 0"/>
<feBlend mode="normal" in2="BackgroundImageFix" result="effect1_dropShadow_860_8811"/>
<feBlend mode="normal" in="SourceGraphic" in2="effect1_dropShadow_860_8811" result="shape"/>
</filter>
<clipPath id="clip0_860_8811">
<rect width="27.2593" height="27.2593" fill="white" transform="translate(50.4946)"/>
</clipPath>
</defs>
</svg>
