<svg width="16" height="18" viewBox="0 0 16 18" fill="#FFFFFF" xmlns="http://www.w3.org/2000/svg">
<path d="M14.9605 13.818C14.6996 14.4206 14.3909 14.9754 14.0331 15.4854C13.5454 16.1807 13.1461 16.662 12.8384 16.9293C12.3614 17.368 11.8503 17.5926 11.303 17.6054C10.9101 17.6054 10.4362 17.4936 9.88469 17.2668C9.33132 17.0411 8.82278 16.9293 8.35779 16.9293C7.87012 16.9293 7.3471 17.0411 6.78767 17.2668C6.22738 17.4936 5.77602 17.6118 5.43092 17.6235C4.90609 17.6459 4.38296 17.4148 3.86079 16.9293C3.52751 16.6386 3.11065 16.1403 2.61127 15.4343C2.07547 14.6805 1.63497 13.8063 1.28987 12.8096C0.920288 11.7331 0.735016 10.6907 0.735016 9.68151C0.735016 8.52548 0.984814 7.52842 1.48516 6.69289C1.87838 6.02175 2.40151 5.49234 3.05624 5.1037C3.71098 4.71505 4.41842 4.517 5.18027 4.50433C5.59713 4.50433 6.14379 4.63328 6.82312 4.8867C7.50054 5.14097 7.9355 5.26991 8.1262 5.26991C8.26878 5.26991 8.75198 5.11914 9.57111 4.81855C10.3457 4.53979 10.9995 4.42437 11.5351 4.46983C12.9864 4.58696 14.0767 5.15907 14.8019 6.18978C13.5039 6.97622 12.8618 8.07774 12.8746 9.49081C12.8863 10.5915 13.2856 11.5074 14.0704 12.2346C14.426 12.5722 14.8232 12.8331 15.265 13.0183C15.1692 13.2962 15.0681 13.5624 14.9605 13.818V13.818ZM11.632 0.720098C11.632 1.58279 11.3168 2.38829 10.6886 3.13385C9.93048 4.02018 9.01349 4.53234 8.01909 4.45152C8.00642 4.34802 7.99907 4.2391 7.99907 4.12463C7.99907 3.29644 8.3596 2.41012 8.99986 1.68543C9.3195 1.31851 9.72604 1.01341 10.219 0.770036C10.711 0.530289 11.1763 0.397705 11.6139 0.375C11.6267 0.490329 11.632 0.605665 11.632 0.720087V0.720098Z" fill="#FFFFFF"/>
</svg>
