<svg width="88" height="32" viewBox="0 0 88 32" fill="none" xmlns="http://www.w3.org/2000/svg">
<g filter="url(#filter0_d_678_672)">
<path d="M8.02273 14C7.99242 13.6212 7.85038 13.3258 7.59659 13.1136C7.34659 12.9015 6.96591 12.7955 6.45455 12.7955C6.12879 12.7955 5.86174 12.8352 5.65341 12.9148C5.44886 12.9905 5.29735 13.0947 5.19886 13.2273C5.10038 13.3598 5.04924 13.5114 5.04545 13.6818C5.03788 13.822 5.0625 13.9489 5.11932 14.0625C5.17992 14.1723 5.27462 14.2727 5.40341 14.3636C5.5322 14.4508 5.69697 14.5303 5.89773 14.6023C6.09849 14.6742 6.33712 14.7386 6.61364 14.7955L7.56818 15C8.21212 15.1364 8.76326 15.3163 9.22159 15.5398C9.67992 15.7633 10.0549 16.0265 10.3466 16.3295C10.6383 16.6288 10.8523 16.9659 10.9886 17.3409C11.1288 17.7159 11.2008 18.125 11.2045 18.5682C11.2008 19.3333 11.0095 19.9811 10.6307 20.5114C10.2519 21.0417 9.71023 21.4451 9.00568 21.7216C8.30492 21.9981 7.46212 22.1364 6.47727 22.1364C5.46591 22.1364 4.58333 21.9867 3.82955 21.6875C3.07955 21.3883 2.49621 20.928 2.07955 20.3068C1.66667 19.6818 1.45833 18.8826 1.45455 17.9091H4.45455C4.47348 18.2652 4.5625 18.5644 4.72159 18.8068C4.88068 19.0492 5.10417 19.233 5.39205 19.358C5.68371 19.483 6.0303 19.5455 6.43182 19.5455C6.76894 19.5455 7.05114 19.5038 7.27841 19.4205C7.50568 19.3371 7.67803 19.2216 7.79545 19.0739C7.91288 18.9261 7.97348 18.7576 7.97727 18.5682C7.97348 18.3902 7.91477 18.2348 7.80114 18.1023C7.69129 17.9659 7.50947 17.8447 7.25568 17.7386C7.00189 17.6288 6.65909 17.5265 6.22727 17.4318L5.06818 17.1818C4.03788 16.9583 3.22538 16.5852 2.63068 16.0625C2.03977 15.536 1.74621 14.8182 1.75 13.9091C1.74621 13.1705 1.94318 12.5246 2.34091 11.9716C2.74242 11.4148 3.29735 10.9811 4.00568 10.6705C4.7178 10.3598 5.53409 10.2045 6.45455 10.2045C7.39394 10.2045 8.20644 10.3617 8.89205 10.6761C9.57765 10.9905 10.1061 11.4337 10.4773 12.0057C10.8523 12.5739 11.0417 13.2386 11.0455 14H8.02273ZM21.9688 22V10.3636H30.3551V12.9091H25.1278V14.9091H29.9233V17.4545H25.1278V19.4545H30.3324V22H21.9688ZM41.1662 12.9091V10.3636H51.2798V12.9091H47.7798V22H44.6662V12.9091H41.1662Z" fill="#0E538C"/>
</g>
<g clip-path="url(#clip0_678_672)">
<g filter="url(#filter1_d_678_672)">
<path d="M82.9359 16.0007C82.8954 19.5779 81.218 22.7545 78.5619 24.7494C76.7343 26.1221 74.4627 26.9356 72.0009 26.9356C65.9615 26.9356 61.0659 22.0401 61.0659 16.0007C61.0659 9.96134 65.9622 4.99105 72.0009 5.06577C78.1405 5.14195 83.0037 10.0131 82.9359 16.0007Z" fill="#FFC239"/>
</g>
<path d="M72.0004 5.06576C68.6857 5.02494 65.7172 6.50626 63.7117 8.84816C63.4143 9.84579 63.2524 10.9006 63.2524 11.9912C63.2524 18.0306 68.148 22.9262 74.1874 22.9262C76.6493 22.9262 78.9208 22.1126 80.7484 20.7399C81.3775 20.2671 81.9498 19.7262 82.4605 19.1314C82.7572 18.1392 82.923 17.0891 82.9354 16.0007C83.0032 10.0127 78.1401 5.14194 72.0004 5.06576Z" fill="#FFD55D"/>
<path d="M82.9355 16.0005C82.976 12.4259 81.2584 9.25038 78.5619 7.25439C79.4553 11.5719 78.6741 16.2688 76.3745 20.01L77.0288 22.5498L80.1977 23.2263C81.8876 21.2992 82.9042 18.7714 82.9355 16.0005Z" fill="#FFC239"/>
<path d="M75.4614 5.64697V22.2203H78.0377C79.0142 21.8525 79.928 21.3565 80.7489 20.7401C81.378 20.2673 81.9502 19.7264 82.4609 19.1316C82.7576 18.1394 82.9235 17.0893 82.9358 16.0009C82.9898 11.1965 79.8682 7.11371 75.4614 5.64697Z" fill="#FFD55D"/>
<path d="M75.4614 5.64697L76.3741 20.0097C77.1031 20.5564 80.5659 21.4677 81.4771 21.4677C82.2061 20.3742 82.2278 19.9111 82.4609 19.1316C82.7576 18.1394 82.9235 17.0893 82.9358 16.0009C82.9898 11.1965 79.8682 7.11371 75.4614 5.64697Z" fill="#FFD55D"/>
<path d="M78.548 7.24559C76.7299 5.90388 74.4693 5.09651 72.0009 5.06626C65.9622 4.99154 61.0659 9.96183 61.0659 16.0012L61.7034 15.3072C64.7528 11.9881 69.2354 10.2403 73.8176 10.5731C73.8176 10.5731 76.665 8.72947 78.5863 7.4457L78.548 7.24559Z" fill="#CCCCCC"/>
<path d="M74.8778 5.46977C73.9625 5.21972 72.9988 5.07866 72.0004 5.06627C68.6857 5.02508 65.7172 6.5064 63.7117 8.8483C63.4143 9.84593 63.2524 10.9008 63.2524 11.9914C63.2524 12.9551 63.3782 13.8893 63.6126 14.7798H74.8778V5.46977Z" fill="#F2F2F2"/>
<path d="M81.4584 21.4672C78.1396 21.2759 75.0982 19.7567 73.0453 17.2194L72.0007 16.0009L68.5223 15.874L66.5332 17.8234C68.8605 21.3145 72.5183 23.698 76.6521 24.4171L78.5617 24.7495C79.7394 23.8653 80.7232 22.7481 81.4584 21.4672Z" fill="#CCCCCC"/>
<path d="M73.0453 17.2194L72.0007 16.0009L68.5223 15.874L66.5332 17.8234C67.8727 19.8325 69.654 21.472 71.712 22.6413C72.5077 22.8257 73.3359 22.9263 74.1877 22.9263C76.3032 22.9263 78.2766 22.3224 79.9504 21.2821C77.2287 20.7805 74.7826 19.3663 73.0453 17.2194Z" fill="#F2F2F2"/>
<path d="M73.8163 10.5727C70.0204 10.2975 66.2956 11.4533 63.3945 13.7442C63.6836 15.5364 64.4067 17.1825 65.4547 18.5712C66.5423 17.7383 67.7328 17.0724 68.9954 16.6809L72.0007 16.0008L72.928 14.0307C73.4769 12.9769 73.7715 11.7974 73.8163 10.5727Z" fill="#173E67"/>
<path d="M61.7034 15.3072L61.0659 16.0012C61.0659 17.9925 61.601 19.858 62.5308 21.4662C63.3819 20.4051 64.3668 19.4049 65.4545 18.5717C64.4066 17.1829 63.683 15.5369 63.3943 13.7446C62.7944 14.2188 62.2265 14.7379 61.7034 15.3072Z" fill="#112F4D"/>
<path d="M63.3945 13.7451L63.3955 13.7441L63.3945 13.7451Z" fill="#FFC239"/>
<path d="M76.377 19.9915C78.6748 16.251 79.4549 11.5559 78.5618 7.2399C76.833 5.96015 74.7018 5.16809 72.3726 5.06494L72.7021 5.6773C74.1124 8.46716 74.1977 11.5785 72.9278 14.0159L72.0005 15.986L73.0451 17.2045C73.9746 18.3534 75.1082 19.2898 76.377 19.9915Z" fill="#1F5389"/>
<path d="M77.703 9.1713C78.0427 8.772 77.594 7.83253 76.7009 7.07293C75.8079 6.31333 74.8086 6.02126 74.469 6.42056C74.1293 6.81986 74.578 7.75933 75.471 8.51893C76.3641 9.27852 77.3634 9.5706 77.703 9.1713Z" fill="white"/>
<path d="M76.8815 10.4756C77.0439 10.2847 76.8294 9.83556 76.4025 9.47246C75.9756 9.10936 75.4979 8.96976 75.3355 9.16067C75.1731 9.35158 75.3876 9.8007 75.8145 10.1638C76.2414 10.5269 76.7191 10.6665 76.8815 10.4756Z" fill="white"/>
</g>
<defs>
<filter id="filter0_d_678_672" x="0.95459" y="9.70459" width="51.8252" height="13.9316" filterUnits="userSpaceOnUse" color-interpolation-filters="sRGB">
<feFlood flood-opacity="0" result="BackgroundImageFix"/>
<feColorMatrix in="SourceAlpha" type="matrix" values="0 0 0 0 0 0 0 0 0 0 0 0 0 0 0 0 0 0 127 0" result="hardAlpha"/>
<feOffset dx="0.5" dy="0.5"/>
<feGaussianBlur stdDeviation="0.5"/>
<feComposite in2="hardAlpha" operator="out"/>
<feColorMatrix type="matrix" values="0 0 0 0 0.000399306 0 0 0 0 0.0526608 0 0 0 0 0.0958333 0 0 0 0.19 0"/>
<feBlend mode="multiply" in2="BackgroundImageFix" result="effect1_dropShadow_678_672"/>
<feBlend mode="normal" in="SourceGraphic" in2="effect1_dropShadow_678_672" result="shape"/>
</filter>
<filter id="filter1_d_678_672" x="59.0659" y="3.06494" width="29.8706" height="29.8706" filterUnits="userSpaceOnUse" color-interpolation-filters="sRGB">
<feFlood flood-opacity="0" result="BackgroundImageFix"/>
<feColorMatrix in="SourceAlpha" type="matrix" values="0 0 0 0 0 0 0 0 0 0 0 0 0 0 0 0 0 0 127 0" result="hardAlpha"/>
<feOffset dx="2" dy="2"/>
<feGaussianBlur stdDeviation="2"/>
<feComposite in2="hardAlpha" operator="out"/>
<feColorMatrix type="matrix" values="0 0 0 0 0.5625 0 0 0 0 0.5625 0 0 0 0 0.5625 0 0 0 0.1 0"/>
<feBlend mode="normal" in2="BackgroundImageFix" result="effect1_dropShadow_678_672"/>
<feBlend mode="normal" in="SourceGraphic" in2="effect1_dropShadow_678_672" result="shape"/>
</filter>
<clipPath id="clip0_678_672">
<rect width="32" height="32" fill="white" transform="translate(56)"/>
</clipPath>
</defs>
</svg>
