<svg width="22" height="21" viewBox="0 0 22 21" fill="none" xmlns="http://www.w3.org/2000/svg">
<path d="M11.7848 1.40768L11.7849 1.40766L11.7836 1.40492C11.5683 0.95108 11.0496 0.767673 10.616 0.950503L10.6158 0.950093L10.6067 0.954918C10.4435 1.0409 10.2666 1.17702 10.1768 1.41022L9.11726 3.75941L6.74343 4.14436L6.74342 4.14432L6.74005 4.14496C6.25814 4.23732 5.96363 4.69582 6.00558 5.18226L6.00634 5.19106L6.00837 5.19964C6.00929 5.2035 6.01021 5.20738 6.01113 5.21129C6.04661 5.36115 6.09052 5.54667 6.22512 5.68886C6.22527 5.68902 6.22542 5.68918 6.22558 5.68935L7.98533 7.5829L7.58166 10.2519C7.49591 10.7532 7.84076 11.205 8.31114 11.2973C8.4985 11.3451 8.71555 11.2945 8.88108 11.2073L8.88113 11.2073L8.88546 11.2048L11.0001 9.97503L13.1148 11.2048L13.1148 11.2049L13.1192 11.2073C13.5478 11.4332 14.0761 11.2999 14.2961 10.8363C14.3788 10.6619 14.4236 10.4784 14.381 10.2509L13.9774 7.5829L15.7372 5.68935C15.7374 5.68917 15.7375 5.689 15.7377 5.68882C15.9629 5.45098 15.9978 5.08665 15.916 4.78481C15.8267 4.45562 15.5206 4.22953 15.2187 4.18379C15.2185 4.18375 15.2182 4.18372 15.218 4.18368L12.846 3.79901L11.7848 1.40768ZM12.9426 7.50408V7.51326L12.944 7.52233L13.3553 10.1959L11.2526 8.94468C11.1007 8.84042 10.9003 8.84027 10.7483 8.94422L8.6443 10.1604L9.05624 7.4828L9.05764 7.47373V7.46456C9.05764 7.31939 9.01144 7.17887 8.92655 7.04466L8.9209 7.03572L8.91376 7.0279L7.15064 5.09656L9.58618 4.69882C9.67919 4.69521 9.75866 4.6466 9.81757 4.5958C9.88073 4.54132 9.93491 4.47185 9.97655 4.40601L9.98141 4.39833L9.98506 4.39L11.0003 2.07144L12.0504 4.46377C12.1075 4.63421 12.2651 4.73014 12.4321 4.77413L12.4319 4.77467L12.4433 4.77652L14.882 5.17479L13.0881 7.06574C12.984 7.1754 12.9426 7.32901 12.9426 7.50408Z" fill="#1F5389" stroke="#0E538C" stroke-width="0.24"/>
<path d="M20.4318 14.5499H14.8019V13.1027C14.8019 12.9398 14.7301 12.7857 14.6058 12.6736C14.4818 12.5618 14.3155 12.5003 14.1438 12.5003H7.85625C7.68452 12.5003 7.51819 12.5618 7.39421 12.6736C7.26993 12.7857 7.19807 12.9398 7.19807 13.1027V15.2819H1.56818C1.39645 15.2819 1.23012 15.3433 1.10614 15.4551C0.981858 15.5672 0.91 15.7214 0.91 15.8843V19.9835C0.91 20.1464 0.981858 20.3005 1.10614 20.4126C1.23012 20.5244 1.39645 20.5859 1.56818 20.5859H20.4318C20.6035 20.5859 20.7699 20.5244 20.8939 20.4126C21.0181 20.3005 21.09 20.1464 21.09 19.9835V15.1523C21.09 14.9894 21.0181 14.8352 20.8939 14.7232C20.7699 14.6114 20.6035 14.5499 20.4318 14.5499ZM7.19807 19.3811H2.22636V16.4867H7.19807V19.3811ZM13.4856 19.3811H8.51443V13.7051H13.4856V19.3811ZM19.7736 19.3811H14.8019V15.7547H19.7736V19.3811Z" fill="#1F5389" stroke="#0E538C" stroke-width="0.18"/>
</svg>
