<svg width="480" height="270" viewBox="0 0 480 270" fill="none" xmlns="http://www.w3.org/2000/svg">
<g clip-path="url(#clip0_980_2281)">
<path opacity="0.1" d="M250.6 220.55C311.503 220.55 360.875 171.178 360.875 110.275C360.875 49.3718 311.503 0 250.6 0C189.697 0 140.325 49.3718 140.325 110.275C140.325 171.178 189.697 220.55 250.6 220.55Z" fill="#2A94F4"/>
<path d="M225 99.0001C226 90.4751 208.2 93.9501 206.725 107.65C205.25 121.35 207.6 132.875 189.125 130.375C189.125 130.375 207.65 144.8 215.025 130.45C222.425 116.1 224.2 105.95 225 99.0001Z" fill="#0E538C"/>
<path d="M239.8 125.775C239.8 125.775 224.2 126.7 221.375 104.2C221.375 104.2 226.525 93.3498 244.275 94.9248C262.025 96.4998 239.8 125.775 239.8 125.775Z" fill="#0E538C"/>
<path d="M241.25 125.775C249.852 125.775 256.825 118.802 256.825 110.2C256.825 101.598 249.852 94.625 241.25 94.625C232.648 94.625 225.675 101.598 225.675 110.2C225.675 118.802 232.648 125.775 241.25 125.775Z" fill="#0E538C"/>
<path d="M289.175 182.85L291.675 182.2L288.1 179.675L289.175 182.85ZM250.6 180.3C250.6 180.3 254.9 182.725 260.825 181.925C266.75 181.1 259.875 169.375 250.6 180.3Z" fill="#FFBE55"/>
<path d="M256.775 185C256.775 185 255.3 176.775 253.825 170.725C252.35 164.675 286.375 174.1 286.375 174.1C286.375 174.1 290.7 179.1 290.475 185.675C290.275 192.275 256.775 185 256.775 185ZM287.975 153.875C287.975 153.875 304.775 152.925 307.7 150.95C313.5 147.05 311.55 110.95 309.675 106.25C307.8 101.525 296.875 98.0748 296.75 94.2998C296.625 90.5248 293.975 92.0498 293.7 95.0998C293.425 98.3248 292.5 102.125 302.45 106.1C304.475 106.9 303.125 136.8 301.5 138.15C299.875 139.5 290.475 138.825 290.475 138.825C290.475 138.825 283.25 152.675 287.975 153.875Z" fill="#FCD2B1"/>
<path d="M216.65 128.125C216.65 128.125 192.05 114.525 189.55 115.025C180.525 116.8 189.375 130.95 213.85 140.975C213.85 140.975 227.075 141.475 216.65 128.125Z" fill="#FFE3CA"/>
<path d="M266.15 211.65C266.15 211.65 264.375 239.95 265.625 242.125C265.625 242.125 229.825 241.525 214.9 246.85C214.9 246.85 208.15 241.125 205.025 242.5C201.9 243.875 198.375 252.325 193.075 256.6C187.8 260.875 190.525 269.825 194.325 270C198.125 270.175 202.125 254.95 212.175 255.35C222.225 255.775 264.3 257 273.525 254.775C282.75 252.575 290.475 215.575 290.475 215.575C290.475 215.575 276.875 206.05 266.15 211.65Z" fill="#FCD2B1"/>
<path d="M216.75 247.6C216.75 247.6 215.925 248.3 214.575 247.625C213.225 246.95 205.15 253.075 208.05 256.55C208.05 256.55 203.075 259.75 201.575 262.575C200.075 265.4 196.125 270.525 192.025 269.45C187.925 268.375 189 257.525 192.025 255.725C195.05 253.925 200.7 248.25 202 245.35C203.275 242.45 207.95 241.2 209.65 241.575C212.35 242.175 216.75 247.6 216.75 247.6Z" fill="#FFBE55"/>
<path d="M251.425 209.65C251.425 209.65 247.025 237.675 248.075 239.95C248.075 239.95 212.5 236.05 197.15 239.95C197.15 239.95 190.95 233.625 187.725 234.7C184.5 235.775 180.175 243.85 174.525 247.625C168.875 251.4 170.75 260.55 174.525 261.1C178.3 261.65 183.675 246.825 193.65 248.175C203.625 249.525 245.4 254.65 254.775 253.3C264.175 251.95 275.275 215.85 275.275 215.85C275.275 215.85 262.625 205.075 251.425 209.65Z" fill="#FFE3CA"/>
<path d="M290.475 185.675L291.65 217.825C291.65 217.825 280.125 219.5 275.275 217.325C270.425 215.175 288.3 188.125 290.475 185.675ZM261.9 134.775C261.9 134.775 284.575 136.925 290.475 138.825C290.475 138.825 296.925 151.275 288.825 154.35L268.625 152.825C268.625 152.825 253.55 144.475 261.9 134.775Z" fill="#FFBE55"/>
<path d="M236.825 123.2C236.825 123.2 245.475 129.925 246.025 134.775L232.475 135.4L256.975 142.125L265 135.275L261.925 134.775C261.925 134.775 254.65 120.5 250.075 119.15C245.475 117.8 239.225 120 236.825 123.2Z" fill="#FCD2B1"/>
<path d="M233.625 119.15C233.625 119.15 230.65 119.7 231.2 121.3C231.75 122.9 237.125 123.175 239 123.45C239 123.45 254.35 128.3 257.05 116.975C259.75 105.675 246.55 97.8499 241.425 98.6499C236.3 99.4499 245.2 117 233.625 119.15Z" fill="#FFE3CA"/>
<path d="M263.9 135.15C264.575 134.7 279.4 139.675 281.65 147.35C283 151.925 282.375 152.025 285.6 159.825C288.825 167.625 291.925 176.55 291.65 182.2C291.65 182.2 268.075 170.325 250.575 180.3C250.575 180.3 253.1 158.3 213.825 140.975C213.825 140.975 219.325 138.425 216.65 128.125C216.65 128.125 236.625 132.15 242.5 134.925C249.625 138.3 258.25 138.9 263.9 135.15ZM256.7 184.4C256.7 184.4 278.65 178.675 290.475 185.675C290.475 185.675 293.2 206.05 276 219.35C276 219.35 256.475 216.8 249.2 218.15C249.2 218.15 247.45 199.675 252.55 193.5C257.675 187.3 256.7 184.4 256.7 184.4Z" fill="#FFBE55"/>
<path d="M198.35 123.5C198.35 123.5 181.125 90.4748 176.075 89.4998C172.45 88.7998 181.45 123.1 192.425 128.125C203.375 133.15 198.35 123.5 198.35 123.5Z" fill="#FFE3CA"/>
<path d="M174.45 92.5C174.45 92.5 170.7 89 167.95 83.375C165.2 77.75 171.275 74.5 173.075 77.225C174.875 79.95 175.75 82.05 176.525 83.9C177.325 85.75 177.275 80.775 176.525 79.85C175.75 78.925 176.575 76.9 178.7 80.45C180.825 84 181.9 98.55 174.45 92.5Z" fill="#FFE3CA"/>
<path d="M197.3 239.9C197.3 239.9 196.475 240.6 195.125 239.925C193.775 239.25 185.7 245.375 188.6 248.85C188.6 248.85 183.625 252.05 182.125 254.875C180.65 257.7 176.675 262.825 172.575 261.75C168.475 260.675 169.55 249.825 172.575 248.025C175.6 246.225 181.25 240.55 182.55 237.65C183.825 234.75 188.5 233.5 190.2 233.875C192.9 234.5 197.3 239.9 197.3 239.9Z" fill="#FFBE55"/>
<path d="M283.05 80.5999C294.772 80.5999 304.275 71.0971 304.275 59.3749C304.275 47.6527 294.772 38.1499 283.05 38.1499C271.328 38.1499 261.825 47.6527 261.825 59.3749C261.825 71.0971 271.328 80.5999 283.05 80.5999Z" fill="#D3D3D3"/>
<path d="M284.825 75.9252C295.07 75.9252 303.375 67.6201 303.375 57.3752C303.375 47.1303 295.07 38.8252 284.825 38.8252C274.58 38.8252 266.275 47.1303 266.275 57.3752C266.275 67.6201 274.58 75.9252 284.825 75.9252Z" fill="#F7F7F7"/>
<path d="M270.075 69.1501L269.95 69.0251C267.9 66.8001 266.675 62.6251 266.625 62.4501L266.525 62.0751L266.925 62.0001C282.9 59.3251 294.375 42.1001 294.5 41.9251L294.725 41.6001L295.025 41.8501C295.05 41.8751 296.65 43.1751 298 44.3251C299.4 45.5251 300.4 47.1001 300.45 47.1751L300.5 47.2751V47.4001C299.375 65.9001 270.575 69.1251 270.275 69.1501H270.075ZM267.425 62.6501C267.775 63.7001 268.825 66.6751 270.35 68.4251C272.775 68.1251 298.6 64.5251 299.75 47.4751C299.525 47.1251 298.625 45.8501 297.5 44.8751C296.5 44.0251 295.35 43.0751 294.825 42.6501C293.15 45.0501 282.275 59.9251 267.425 62.6501Z" fill="#D3D3D3"/>
</g>
<defs>
<clipPath id="clip0_980_2281">
<rect width="480" height="270" fill="white"/>
</clipPath>
</defs>
</svg>
