<svg width="22" height="23" viewBox="0 0 22 23" fill="none" xmlns="http://www.w3.org/2000/svg">
<path d="M17.4562 9.33714C17.9403 12.2483 15.9728 15.0006 13.0616 15.4847C10.1505 15.9688 7.39817 14.0012 6.91412 11.0901C6.43007 8.17892 8.3976 5.42657 11.3087 4.94251C14.2198 4.45846 16.9722 6.426 17.4562 9.33714Z" stroke="black" stroke-width="1.5"/>
<path d="M15.6948 1.59961L19.3399 1.31654" stroke="black" stroke-width="1.5" stroke-linecap="round"/>
<path d="M20.001 5.20801L19.4013 1.60145" stroke="black" stroke-width="1.5" stroke-linecap="round" stroke-linejoin="round"/>
<path d="M15.7928 5.90747L19.0677 1.32562" stroke="black" stroke-width="1.5" stroke-linecap="round" stroke-linejoin="round"/>
<path d="M11.4369 11.9685C11.4369 14.9196 9.04452 17.3119 6.09343 17.3119C3.14234 17.3119 0.749999 14.9196 0.749999 11.9685C0.749999 9.01735 3.14234 6.625 6.09343 6.625C9.04452 6.625 11.4369 9.01735 11.4369 11.9685Z" stroke="black" stroke-width="1.5"/>
<path d="M6.09375 21.7178V18.0617" stroke="black" stroke-width="1.5" stroke-linecap="round" stroke-linejoin="round"/>
<path d="M4.26562 19.8901H7.92168" stroke="black" stroke-width="1.5" stroke-linecap="round" stroke-linejoin="round"/>
</svg>
