<svg width="14" height="15" viewBox="0 0 14 15" fill="none" xmlns="http://www.w3.org/2000/svg">
<path d="M10.7356 6.13184C11.0329 7.91948 9.82467 9.60961 8.03705 9.90685C6.24942 10.2041 4.5593 8.99589 4.26206 7.20825C3.96482 5.42061 5.17302 3.73049 6.96064 3.43324C8.74827 3.136 10.4384 4.3442 10.7356 6.13184Z" stroke="#EDEDED" stroke-width="0.937496"/>
<path d="M9.65869 1.36914L11.9019 1.19493" stroke="#EDEDED" stroke-width="0.937496" stroke-linecap="round"/>
<path d="M12.3086 3.58936L11.9395 1.36983" stroke="#EDEDED" stroke-width="0.937496" stroke-linecap="round" stroke-linejoin="round"/>
<path d="M9.71945 4.02017L11.7348 1.20045" stroke="#EDEDED" stroke-width="0.937496" stroke-linecap="round" stroke-linejoin="round"/>
<path d="M7.0312 7.74999C7.0312 9.56218 5.56214 11.0312 3.74997 11.0312C1.9378 11.0312 0.468748 9.56218 0.468748 7.74999C0.468748 5.93781 1.9378 4.46875 3.74997 4.46875C5.56214 4.46875 7.0312 5.93781 7.0312 7.74999Z" stroke="#EDEDED" stroke-width="0.937496"/>
<path d="M3.75 13.75V11.5" stroke="#EDEDED" stroke-width="0.937496" stroke-linecap="round" stroke-linejoin="round"/>
<path d="M2.625 12.625H4.87498" stroke="#EDEDED" stroke-width="0.937496" stroke-linecap="round" stroke-linejoin="round"/>
</svg>
