<svg width="24" height="24" viewBox="0 0 24 24" fill="none" xmlns="http://www.w3.org/2000/svg">
<path d="M20.0698 17.05L19.3998 15.05C19.2008 14.4539 18.8196 13.9353 18.31 13.5675C17.8004 13.1997 17.1882 13.0012 16.5598 13H7.43978C6.81133 13.0012 6.19912 13.1997 5.68955 13.5675C5.17998 13.9353 4.79879 14.4539 4.59978 15.05L3.92978 17.05C3.77936 17.5006 3.73808 17.9804 3.80933 18.45C3.88058 18.9196 4.06233 19.3656 4.33962 19.7513C4.61691 20.137 4.98181 20.4513 5.4043 20.6684C5.82678 20.8854 6.29478 20.9991 6.76978 21H17.2298C17.7048 20.9991 18.1728 20.8854 18.5953 20.6684C19.0178 20.4513 19.3827 20.137 19.6599 19.7513C19.9372 19.3656 20.119 18.9196 20.1902 18.45C20.2615 17.9804 20.2202 17.5006 20.0698 17.05Z" fill="white"/>
<path d="M17.2801 4.41024C16.6589 3.6134 15.8545 2.97824 14.9353 2.55868C14.0161 2.13912 13.0092 1.94756 12.0001 2.00024C10.9911 1.94756 9.98423 2.13912 9.06503 2.55868C8.14583 2.97824 7.34144 3.6134 6.72015 4.41024C6.22539 5.1161 5.90645 5.92995 5.78991 6.78402C5.67337 7.63809 5.76259 8.50764 6.05015 9.32024C7.11015 12.5002 11.1201 16.5402 11.2901 16.7102C11.3836 16.8029 11.4944 16.8763 11.6162 16.926C11.7381 16.9758 11.8685 17.001 12.0001 17.0002C12.2576 16.9992 12.5048 16.8989 12.6901 16.7202C12.8601 16.5602 16.8101 12.7202 17.9501 9.32024C18.2377 8.50764 18.3269 7.63809 18.2104 6.78402C18.0938 5.92995 17.7749 5.1161 17.2801 4.41024Z" fill="black"/>
<path d="M12 10C11.6044 10 11.2178 9.8827 10.8889 9.66294C10.56 9.44318 10.3036 9.13082 10.1522 8.76537C10.0009 8.39992 9.96126 7.99778 10.0384 7.60982C10.1156 7.22186 10.3061 6.86549 10.5858 6.58579C10.8655 6.30608 11.2219 6.1156 11.6098 6.03843C11.9978 5.96126 12.3999 6.00087 12.7654 6.15224C13.1308 6.30362 13.4432 6.55996 13.6629 6.88886C13.8827 7.21776 14 7.60444 14 8C14 8.53043 13.7893 9.03914 13.4142 9.41421C13.0391 9.78929 12.5304 10 12 10Z" fill="white"/>
</svg>
