<svg width="160" height="58" viewBox="0 0 160 58" fill="none" xmlns="http://www.w3.org/2000/svg">
<g filter="url(#filter0_d_656_958)">
<path d="M13.6409 26.1996C13.5864 25.5178 13.3307 24.986 12.8739 24.6042C12.4239 24.2223 11.7386 24.0314 10.8182 24.0314C10.2318 24.0314 9.75114 24.103 9.37614 24.2462C9.00795 24.3826 8.73523 24.5701 8.55796 24.8087C8.38068 25.0473 8.28864 25.3201 8.28182 25.6269C8.26818 25.8792 8.3125 26.1076 8.41477 26.3121C8.52386 26.5098 8.69432 26.6905 8.92614 26.8542C9.15795 27.011 9.45455 27.1542 9.81591 27.2837C10.1773 27.4132 10.6068 27.5292 11.1045 27.6314L12.8227 27.9996C13.9818 28.2451 14.9739 28.5689 15.7989 28.9712C16.6239 29.3735 17.2989 29.8473 17.8239 30.3928C18.3489 30.9314 18.7341 31.5382 18.9795 32.2132C19.2318 32.8882 19.3614 33.6246 19.3682 34.4223C19.3614 35.7996 19.017 36.9655 18.3352 37.9201C17.6534 38.8746 16.6784 39.6007 15.4102 40.0985C14.1489 40.5962 12.6318 40.8451 10.8591 40.8451C9.03864 40.8451 7.45 40.5757 6.09318 40.0371C4.74318 39.4985 3.69318 38.6701 2.94318 37.5519C2.2 36.4269 1.825 34.9882 1.81818 33.236H7.21818C7.25227 33.8769 7.4125 34.4155 7.69886 34.8519C7.98523 35.2882 8.3875 35.6189 8.90568 35.8439C9.43068 36.0689 10.0545 36.1814 10.7773 36.1814C11.3841 36.1814 11.892 36.1064 12.3011 35.9564C12.7102 35.8064 13.0205 35.5985 13.2318 35.3326C13.4432 35.0667 13.5523 34.7632 13.5591 34.4223C13.5523 34.1019 13.4466 33.8223 13.242 33.5837C13.0443 33.3382 12.717 33.1201 12.2602 32.9292C11.8034 32.7314 11.1864 32.5473 10.4091 32.3769L8.32273 31.9269C6.46818 31.5246 5.00568 30.853 3.93523 29.9121C2.87159 28.9644 2.34318 27.6723 2.35 26.036C2.34318 24.7064 2.69773 23.5439 3.41364 22.5485C4.13636 21.5462 5.13523 20.7655 6.41023 20.2064C7.69205 19.6473 9.16136 19.3678 10.8182 19.3678C12.5091 19.3678 13.9716 19.6507 15.2057 20.2167C16.4398 20.7826 17.3909 21.5803 18.0591 22.6098C18.7341 23.6326 19.075 24.8292 19.0818 26.1996H13.6409ZM38.7438 40.5996V19.6542H53.8392V24.236H44.4301V27.836H53.0619V32.4178H44.4301V36.0178H53.7983V40.5996H38.7438ZM73.2992 24.236V19.6542H91.5037V24.236H85.2037V40.5996H79.5992V24.236H73.2992Z" fill="white"/>
<path d="M13.6409 26.1996L13.1923 26.2355L13.2255 26.6496H13.6409V26.1996ZM12.8739 24.6042L12.5827 24.9473L12.5853 24.9494L12.8739 24.6042ZM9.37614 24.2462L9.53244 24.6682L9.53665 24.6666L9.37614 24.2462ZM8.55796 24.8087L8.19672 24.5404H8.19672L8.55796 24.8087ZM8.28182 25.6269L8.73116 25.6512L8.73155 25.644L8.73171 25.6369L8.28182 25.6269ZM8.41477 26.3121L8.01228 26.5134L8.01636 26.5215L8.02076 26.5295L8.41477 26.3121ZM8.92614 26.8542L8.66658 27.2219L8.674 27.2269L8.92614 26.8542ZM11.1045 27.6314L11.1988 27.1914L11.1951 27.1906L11.1045 27.6314ZM12.8227 27.9996L12.7284 28.4396L12.7295 28.4398L12.8227 27.9996ZM15.7989 28.9712L15.6016 29.3757L15.7989 28.9712ZM17.8239 30.3928L17.4996 30.7049L17.5016 30.7069L17.8239 30.3928ZM18.9795 32.2132L18.5566 32.367L18.558 32.3708L18.9795 32.2132ZM19.3682 34.4223L19.8182 34.4246L19.8182 34.4185L19.3682 34.4223ZM18.3352 37.9201L18.7014 38.1816L18.3352 37.9201ZM15.4102 40.0985L15.2458 39.6796L15.2451 39.6799L15.4102 40.0985ZM6.09318 40.0371L5.92642 40.4551L5.92714 40.4554L6.09318 40.0371ZM2.94318 37.5519L2.5677 37.7999L2.56946 37.8025L2.94318 37.5519ZM1.81818 33.236V32.786H1.36643L1.36819 33.2377L1.81818 33.236ZM7.21818 33.236L7.66755 33.2121L7.64488 32.786H7.21818V33.236ZM7.69886 34.8519L7.32264 35.0988L7.69886 34.8519ZM8.90568 35.8439L8.72645 36.2567L8.72842 36.2575L8.90568 35.8439ZM12.3011 35.9564L12.4561 36.3789L12.3011 35.9564ZM13.2318 35.3326L13.5841 35.6126L13.2318 35.3326ZM13.5591 34.4223L14.009 34.4313L14.0092 34.422L14.009 34.4128L13.5591 34.4223ZM13.242 33.5837L12.8914 33.8661L12.9004 33.8766L13.242 33.5837ZM12.2602 32.9292L12.0815 33.3422L12.0867 33.3444L12.2602 32.9292ZM10.4091 32.3769L10.5055 31.9373L10.504 31.937L10.4091 32.3769ZM8.32273 31.9269L8.22734 32.3667L8.22785 32.3668L8.32273 31.9269ZM3.93523 29.9121L3.63586 30.2481L3.63814 30.2501L3.93523 29.9121ZM2.35 26.036L2.80002 26.0378L2.79999 26.0337L2.35 26.036ZM3.41364 22.5485L3.04863 22.2853L3.0483 22.2857L3.41364 22.5485ZM6.41023 20.2064L6.23032 19.794L6.22951 19.7943L6.41023 20.2064ZM15.2057 20.2167L15.0181 20.6257L15.2057 20.2167ZM18.0591 22.6098L17.6816 22.8548L17.6835 22.8577L18.0591 22.6098ZM19.0818 26.1996V26.6496H19.5341L19.5318 26.1974L19.0818 26.1996ZM14.0895 26.1637C14.0269 25.381 13.726 24.7299 13.1625 24.2589L12.5853 24.9494C12.9354 25.2421 13.1459 25.6546 13.1923 26.2355L14.0895 26.1637ZM13.165 24.261C12.599 23.7807 11.7886 23.5814 10.8182 23.5814V24.4814C11.6887 24.4814 12.2488 24.6639 12.5827 24.9473L13.165 24.261ZM10.8182 23.5814C10.2 23.5814 9.6597 23.6562 9.21562 23.8258L9.53665 24.6666C9.84257 24.5498 10.2637 24.4814 10.8182 24.4814V23.5814ZM9.21984 23.8242C8.79563 23.9813 8.44023 24.2126 8.19672 24.5404L8.91919 25.077C9.03023 24.9276 9.22028 24.7838 9.53243 24.6682L9.21984 23.8242ZM8.19672 24.5404C7.96196 24.8564 7.84075 25.2201 7.83193 25.6169L8.73171 25.6369C8.73653 25.4201 8.79941 25.2383 8.91919 25.077L8.19672 24.5404ZM7.83247 25.6026C7.81508 25.9245 7.87152 26.2318 8.01228 26.5134L8.81727 26.1109C8.75348 25.9833 8.72129 25.8338 8.73116 25.6512L7.83247 25.6026ZM8.02076 26.5295C8.17007 26.8001 8.39308 27.0287 8.66663 27.2218L9.18564 26.4865C8.99556 26.3523 8.87766 26.2196 8.80878 26.0947L8.02076 26.5295ZM8.674 27.2269C8.94609 27.4109 9.27938 27.5694 9.66405 27.7073L9.96777 26.8601C9.62972 26.7389 9.36982 26.611 9.17828 26.4814L8.674 27.2269ZM9.66405 27.7073C10.0506 27.8459 10.5017 27.9669 11.014 28.0722L11.1951 27.1906C10.712 27.0914 10.3039 26.9806 9.96777 26.8601L9.66405 27.7073ZM11.0103 28.0714L12.7284 28.4396L12.917 27.5596L11.1988 27.1914L11.0103 28.0714ZM12.7295 28.4398C13.8624 28.6798 14.8177 28.9934 15.6016 29.3757L15.9961 28.5667C15.1301 28.1444 14.1012 27.8104 12.916 27.5594L12.7295 28.4398ZM15.6016 29.3757C16.389 29.7596 17.0181 30.2045 17.4996 30.7049L18.1481 30.0807C17.5797 29.4902 16.8587 28.9874 15.9961 28.5667L15.6016 29.3757ZM17.5016 30.7069C17.9842 31.202 18.334 31.7548 18.5566 32.367L19.4025 32.0595C19.1342 31.3217 18.7135 30.6608 18.1461 30.0787L17.5016 30.7069ZM18.558 32.3708C18.7901 32.9916 18.9118 33.6754 18.9182 34.4262L19.8182 34.4185C19.8109 33.5739 19.6736 32.7849 19.4011 32.0557L18.558 32.3708ZM18.9182 34.4201C18.9117 35.721 18.5879 36.7922 17.969 37.6585L18.7014 38.1816C19.4462 37.1389 19.811 35.8782 19.8182 34.4246L18.9182 34.4201ZM17.969 37.6585C17.3456 38.5313 16.4463 39.2084 15.2458 39.6796L15.5746 40.5174C16.9105 39.9931 17.9612 39.2179 18.7014 38.1816L17.969 37.6585ZM15.2451 39.6799C14.0497 40.1516 12.5918 40.3951 10.8591 40.3951V41.2951C12.6719 41.2951 14.248 41.0408 15.5754 40.5171L15.2451 39.6799ZM10.8591 40.3951C9.08195 40.3951 7.55192 40.132 6.25922 39.6189L5.92714 40.4554C7.34808 41.0194 8.99533 41.2951 10.8591 41.2951V40.3951ZM6.25994 39.6192C4.98718 39.1113 4.0123 38.338 3.3169 37.3012L2.56946 37.8025C3.37407 39.0021 4.49918 39.8856 5.92642 40.4551L6.25994 39.6192ZM3.31865 37.3038C2.63629 36.2709 2.27476 34.9248 2.26818 33.2342L1.36819 33.2377C1.37524 35.0517 1.76371 36.5829 2.56771 37.7999L3.31865 37.3038ZM1.81818 33.686H7.21818V32.786H1.81818V33.686ZM6.76882 33.2599C6.80617 33.9621 6.98361 34.5822 7.32264 35.0988L8.07509 34.605C7.84139 34.2489 7.69838 33.7916 7.66755 33.2121L6.76882 33.2599ZM7.32264 35.0988C7.66109 35.6145 8.13477 35.9998 8.72645 36.2567L9.08491 35.4312C8.64023 35.2381 8.30937 34.962 8.07509 34.605L7.32264 35.0988ZM8.72842 36.2575C9.32217 36.512 10.0092 36.6314 10.7773 36.6314V35.7314C10.0999 35.7314 9.53919 35.6258 9.08295 35.4303L8.72842 36.2575ZM10.7773 36.6314C11.4177 36.6314 11.982 36.5527 12.4561 36.3789L12.1462 35.5339C11.8021 35.6601 11.3504 35.7314 10.7773 35.7314V36.6314ZM12.4561 36.3789C12.9212 36.2084 13.3086 35.9591 13.5841 35.6126L12.8795 35.0526C12.7323 35.2378 12.4993 35.4045 12.1462 35.5339L12.4561 36.3789ZM13.5841 35.6126C13.8571 35.2691 14.0002 34.8704 14.009 34.4313L13.1092 34.4133C13.1043 34.6561 13.0293 34.8642 12.8795 35.0526L13.5841 35.6126ZM14.009 34.4128C14 33.9904 13.8575 33.6102 13.5837 33.2908L12.9004 33.8766C13.0357 34.0344 13.1045 34.2133 13.1092 34.4319L14.009 34.4128ZM13.5925 33.3014C13.3284 32.9735 12.924 32.7188 12.4337 32.514L12.0867 33.3444C12.5101 33.5213 12.7603 33.703 12.8916 33.866L13.5925 33.3014ZM12.439 32.5162C11.9447 32.3023 11.2964 32.1108 10.5055 31.9373L10.3127 32.8164C11.0763 32.9839 11.6621 33.1606 12.0815 33.3421L12.439 32.5162ZM10.504 31.937L8.4176 31.487L8.22785 32.3668L10.3142 32.8168L10.504 31.937ZM8.41812 31.4871C6.61446 31.0959 5.22935 30.4505 4.23232 29.5741L3.63814 30.2501C4.78201 31.2555 6.3219 31.9533 8.22734 32.3667L8.41812 31.4871ZM4.23459 29.5761C3.28206 28.7274 2.79363 27.5664 2.8 26.0378L1.9 26.0341C1.89274 27.7782 2.46112 29.2014 3.63586 30.2481L4.23459 29.5761ZM2.79999 26.0337C2.79362 24.7907 3.12332 23.7229 3.77897 22.8112L3.0483 22.2857C2.27214 23.365 1.89274 24.6221 1.90001 26.0383L2.79999 26.0337ZM3.77864 22.8117C4.44861 21.8826 5.38004 21.1495 6.59094 20.6185L6.22951 19.7943C4.89042 20.3815 3.82412 21.2098 3.04863 22.2853L3.77864 22.8117ZM6.59014 20.6189C7.80572 20.0887 9.21201 19.8178 10.8182 19.8178V18.9178C9.11072 18.9178 7.57838 19.206 6.23032 19.794L6.59014 20.6189ZM10.8182 19.8178C12.4598 19.8178 13.8555 20.0925 15.0181 20.6257L15.3933 19.8076C14.0877 19.2089 12.5584 18.9178 10.8182 18.9178V19.8178ZM15.0181 20.6257C16.1831 21.1599 17.0648 21.9043 17.6816 22.8548L18.4366 22.3649C17.7171 21.2562 16.6964 20.4052 15.3933 19.8076L15.0181 20.6257ZM17.6835 22.8577C18.3048 23.7991 18.6254 24.9081 18.6318 26.2018L19.5318 26.1974C19.5246 24.7502 19.1634 23.466 18.4347 22.362L17.6835 22.8577ZM19.0818 25.7496H13.6409V26.6496H19.0818V25.7496ZM38.7438 40.5996H38.2938V41.0496H38.7438V40.5996ZM38.7438 19.6542V19.2042H38.2938V19.6542H38.7438ZM53.8392 19.6542H54.2892V19.2042H53.8392V19.6542ZM53.8392 24.236V24.686H54.2892V24.236H53.8392ZM44.4301 24.236V23.786H43.9801V24.236H44.4301ZM44.4301 27.836H43.9801V28.286H44.4301V27.836ZM53.0619 27.836H53.5119V27.386H53.0619V27.836ZM53.0619 32.4178V32.8678H53.5119V32.4178H53.0619ZM44.4301 32.4178V31.9678H43.9801V32.4178H44.4301ZM44.4301 36.0178H43.9801V36.4678H44.4301V36.0178ZM53.7983 36.0178H54.2483V35.5678H53.7983V36.0178ZM53.7983 40.5996V41.0496H54.2483V40.5996H53.7983ZM39.1938 40.5996V19.6542H38.2938V40.5996H39.1938ZM38.7438 20.1042H53.8392V19.2042H38.7438V20.1042ZM53.3892 19.6542V24.236H54.2892V19.6542H53.3892ZM53.8392 23.786H44.4301V24.686H53.8392V23.786ZM43.9801 24.236V27.836H44.8801V24.236H43.9801ZM44.4301 28.286H53.0619V27.386H44.4301V28.286ZM52.6119 27.836V32.4178H53.5119V27.836H52.6119ZM53.0619 31.9678H44.4301V32.8678H53.0619V31.9678ZM43.9801 32.4178V36.0178H44.8801V32.4178H43.9801ZM44.4301 36.4678H53.7983V35.5678H44.4301V36.4678ZM53.3483 36.0178V40.5996H54.2483V36.0178H53.3483ZM53.7983 40.1496H38.7438V41.0496H53.7983V40.1496ZM73.2992 24.236H72.8492V24.686H73.2992V24.236ZM73.2992 19.6542V19.2042H72.8492V19.6542H73.2992ZM91.5037 19.6542H91.9537V19.2042H91.5037V19.6542ZM91.5037 24.236V24.686H91.9537V24.236H91.5037ZM85.2037 24.236V23.786H84.7537V24.236H85.2037ZM85.2037 40.5996V41.0496H85.6537V40.5996H85.2037ZM79.5992 40.5996H79.1492V41.0496H79.5992V40.5996ZM79.5992 24.236H80.0492V23.786H79.5992V24.236ZM73.7492 24.236V19.6542H72.8492V24.236H73.7492ZM73.2992 20.1042H91.5037V19.2042H73.2992V20.1042ZM91.0537 19.6542V24.236H91.9537V19.6542H91.0537ZM91.5037 23.786H85.2037V24.686H91.5037V23.786ZM84.7537 24.236V40.5996H85.6537V24.236H84.7537ZM85.2037 40.1496H79.5992V41.0496H85.2037V40.1496ZM80.0492 40.5996V24.236H79.1492V40.5996H80.0492ZM79.5992 23.786H73.2992V24.686H79.5992V23.786Z" fill="#083961"/>
</g>
<g clip-path="url(#clip0_656_958)">
<g filter="url(#filter1_d_656_958)">
<path d="M150.284 28.8016C150.212 35.2405 147.192 40.9584 142.411 44.5492C139.122 47.02 135.033 48.4845 130.601 48.4845C119.731 48.4845 110.918 39.6724 110.918 28.8016C110.918 17.9307 119.732 8.98418 130.601 9.11868C141.653 9.25581 150.406 18.0239 150.284 28.8016Z" fill="#FFC239"/>
</g>
<path d="M130.601 9.11867C124.635 9.04519 119.292 11.7116 115.682 15.927C115.146 17.7227 114.855 19.6215 114.855 21.5845C114.855 32.4554 123.667 41.2674 134.538 41.2674C138.969 41.2674 143.058 39.803 146.348 37.3321C147.48 36.4812 148.51 35.5075 149.429 34.4368C149.963 32.6509 150.262 30.7607 150.284 28.8016C150.406 18.0232 141.653 9.25579 130.601 9.11867Z" fill="#FFD55D"/>
<path d="M150.284 28.8011C150.357 22.3668 147.266 16.6509 142.412 13.0581C144.02 20.8296 142.614 29.284 138.475 36.0182L139.652 40.5899L145.356 41.8076C148.398 38.3388 150.228 33.7888 150.284 28.8011Z" fill="#FFC239"/>
<path d="M136.831 10.1641V39.9961H141.468C143.226 39.3341 144.871 38.4412 146.348 37.3317C147.481 36.4807 148.511 35.5071 149.43 34.4363C149.964 32.6504 150.263 30.7602 150.285 28.8011C150.382 20.1531 144.763 12.8042 136.831 10.1641Z" fill="#FFD55D"/>
<path d="M136.831 10.1641L138.474 36.0169C139.786 37.0011 146.019 38.6413 147.659 38.6413C148.972 36.673 149.011 35.8395 149.43 34.4363C149.964 32.6504 150.263 30.7602 150.285 28.8011C150.382 20.1531 144.763 12.8042 136.831 10.1641Z" fill="#FFD55D"/>
<path d="M142.386 13.042C139.114 10.6269 135.045 9.17363 130.601 9.11917C119.732 8.98467 110.918 17.9312 110.918 28.8021L112.066 27.5529C117.555 21.5784 125.624 18.4325 133.871 19.0315C133.871 19.0315 138.997 15.7129 142.455 13.4022L142.386 13.042Z" fill="#CCCCCC"/>
<path d="M135.781 9.84548C134.133 9.3954 132.398 9.14149 130.601 9.11918C124.635 9.04504 119.292 11.7114 115.682 15.9268C115.146 17.7226 114.855 19.6213 114.855 21.5844C114.855 23.3191 115.081 25.0006 115.503 26.6035H135.781V9.84548Z" fill="#F2F2F2"/>
<path d="M147.625 38.6406C141.651 38.2961 136.177 35.5615 132.482 30.9944L130.601 28.8011L124.34 28.5728L120.76 32.0816C124.949 38.3656 131.533 42.6559 138.974 43.9503L142.411 44.5487C144.531 42.957 146.302 40.9461 147.625 38.6406Z" fill="#CCCCCC"/>
<path d="M132.482 30.9949L130.601 28.8016L124.34 28.5732L120.76 32.082C123.171 35.6984 126.377 38.6496 130.082 40.7543C131.514 41.0863 133.005 41.2674 134.538 41.2674C138.346 41.2674 141.898 40.1802 144.911 38.3077C140.012 37.405 135.609 34.8593 132.482 30.9949Z" fill="#F2F2F2"/>
<path d="M133.87 19.0309C127.037 18.5356 120.332 20.616 115.11 24.7396C115.631 27.9656 116.932 30.9286 118.819 33.4283C120.776 31.9291 122.919 30.7304 125.192 30.0258L130.602 28.8015L132.271 25.2553C133.259 23.3585 133.789 21.2354 133.87 19.0309Z" fill="#173E67"/>
<path d="M112.066 27.5529L110.918 28.8021C110.918 32.3864 111.882 35.7443 113.555 38.639C115.087 36.7291 116.86 34.9288 118.818 33.4289C116.932 30.9292 115.629 27.9663 115.11 24.7402C114.03 25.5938 113.007 26.5281 112.066 27.5529Z" fill="#112F4D"/>
<path d="M115.11 24.7403L115.111 24.7393L115.11 24.7403Z" fill="#FFC239"/>
<path d="M138.478 35.9845C142.614 29.2516 144.018 20.8005 142.411 13.0316C139.299 10.7281 135.463 9.30237 131.27 9.1167L131.864 10.2189C134.402 15.2407 134.556 20.8411 132.27 25.2285L130.601 28.7747L132.481 30.968C134.154 33.036 136.194 34.7215 138.478 35.9845Z" fill="#1F5389"/>
<path d="M140.866 16.5083C141.477 15.7896 140.67 14.0985 139.062 12.7313C137.454 11.364 135.656 10.8383 135.044 11.557C134.433 12.2757 135.241 13.9668 136.848 15.3341C138.456 16.7013 140.254 17.2271 140.866 16.5083Z" fill="white"/>
<path d="M139.387 18.8565C139.679 18.5128 139.293 17.7044 138.525 17.0508C137.756 16.3972 136.896 16.146 136.604 16.4896C136.312 16.8332 136.698 17.6417 137.466 18.2952C138.234 18.9488 139.094 19.2001 139.387 18.8565Z" fill="white"/>
</g>
<defs>
<filter id="filter0_d_656_958" x="0.918359" y="18.4677" width="93.2855" height="25.0775" filterUnits="userSpaceOnUse" color-interpolation-filters="sRGB">
<feFlood flood-opacity="0" result="BackgroundImageFix"/>
<feColorMatrix in="SourceAlpha" type="matrix" values="0 0 0 0 0 0 0 0 0 0 0 0 0 0 0 0 0 0 127 0" result="hardAlpha"/>
<feOffset dx="0.9" dy="0.9"/>
<feGaussianBlur stdDeviation="0.9"/>
<feComposite in2="hardAlpha" operator="out"/>
<feColorMatrix type="matrix" values="0 0 0 0 0.000399306 0 0 0 0 0.0526608 0 0 0 0 0.0958333 0 0 0 0.19 0"/>
<feBlend mode="multiply" in2="BackgroundImageFix" result="effect1_dropShadow_656_958"/>
<feBlend mode="normal" in="SourceGraphic" in2="effect1_dropShadow_656_958" result="shape"/>
</filter>
<filter id="filter1_d_656_958" x="107.318" y="5.51719" width="53.7672" height="53.7672" filterUnits="userSpaceOnUse" color-interpolation-filters="sRGB">
<feFlood flood-opacity="0" result="BackgroundImageFix"/>
<feColorMatrix in="SourceAlpha" type="matrix" values="0 0 0 0 0 0 0 0 0 0 0 0 0 0 0 0 0 0 127 0" result="hardAlpha"/>
<feOffset dx="3.6" dy="3.6"/>
<feGaussianBlur stdDeviation="3.6"/>
<feComposite in2="hardAlpha" operator="out"/>
<feColorMatrix type="matrix" values="0 0 0 0 0.5625 0 0 0 0 0.5625 0 0 0 0 0.5625 0 0 0 0.1 0"/>
<feBlend mode="normal" in2="BackgroundImageFix" result="effect1_dropShadow_656_958"/>
<feBlend mode="normal" in="SourceGraphic" in2="effect1_dropShadow_656_958" result="shape"/>
</filter>
<clipPath id="clip0_656_958">
<rect width="57.6" height="57.6" fill="white" transform="translate(101.8)"/>
</clipPath>
</defs>
</svg>
