<svg width="96" height="96" viewBox="0 0 96 96" fill="none" xmlns="http://www.w3.org/2000/svg">
<path d="M47.8953 9.99728L47.9996 10.0027L48.1039 9.99728C51.8188 9.8033 55.5256 10.5086 58.9096 12.0532C62.2782 13.5907 65.228 15.9148 67.5109 18.8295C69.2905 21.3823 70.4381 24.3217 70.8589 27.4055C71.282 30.506 70.9581 33.6628 69.9142 36.6128L69.9087 36.6285L69.9034 36.6442C67.7439 43.0846 62.8495 50.0928 58.2776 55.6724C53.7377 61.213 49.6794 65.1502 49.3889 65.4236L49.3802 65.4318L49.3717 65.44C49.0009 65.7974 48.5066 65.998 47.9917 66L47.9881 66C47.7248 66.0016 47.4639 65.9511 47.2202 65.8516C46.9777 65.7525 46.757 65.6068 46.5706 65.4226C46.2332 65.0849 42.1186 60.9383 37.5693 55.3168C32.9622 49.624 28.095 42.6415 26.097 36.6475L26.0912 36.6301L26.085 36.6128C25.0411 33.6628 24.7172 30.506 25.1403 27.4055C25.5611 24.3217 26.7087 21.3823 28.4883 18.8295C30.7713 15.9148 33.721 13.5907 37.0896 12.0532C40.4737 10.5086 44.1805 9.8033 47.8953 9.99728Z" fill="#1F5389" stroke="#173E67" stroke-width="4"/>
<path d="M53.7005 33.8122H53.7007C55.7623 33.812 57.7964 33.3433 59.6497 32.4419C59.5372 33.7706 59.1857 35.0683 58.6119 36.2724C54.5013 37.5384 50.0757 37.308 46.1194 35.6229C46.8178 34.553 47.6951 33.6112 48.7131 32.8387C50.2989 33.4761 51.9913 33.8064 53.7005 33.8122ZM48.5194 17.9725C41.0377 17.9725 34.9725 24.0379 34.9725 31.5198C34.9725 39.0018 41.0377 45.0672 48.5194 45.0672C56.0012 45.0672 62.0663 39.0018 62.0663 31.5198C62.0663 24.0379 56.0012 17.9725 48.5194 17.9725ZM59.5515 29.7949C58.5615 30.4074 57.4819 30.8612 56.3519 31.1401C56.1043 27.6116 54.9476 24.2079 52.9951 21.2599C56.4908 22.7979 58.9654 26.0145 59.5515 29.7949ZM48.5158 20.321C48.791 20.321 49.0602 20.3412 49.3333 20.3621C52.1077 23.4155 53.7605 27.3217 54.0204 31.4386C52.5205 31.4829 51.027 31.224 49.6295 30.6771C49.3986 26.9069 47.6058 23.4045 44.6844 21.0127C45.9105 20.5581 47.2077 20.3239 48.5158 20.321ZM37.5639 33.7276C36.6482 29.2782 38.5293 24.712 42.3247 22.2007C43.3488 22.8729 44.2556 23.7085 45.0092 24.6741C41.7005 26.9054 39.1138 30.0516 37.5639 33.7276ZM47.3067 30.9621C44.2661 33.2821 42.347 36.7775 42.0203 40.5862C40.7354 39.6643 39.659 38.4816 38.8621 37.115C39.9781 32.8655 42.5927 29.1632 46.223 26.6901C46.8653 28.0275 47.2339 29.48 47.3067 30.9621ZM48.5157 42.6819C47.0803 42.6815 45.6586 42.4032 44.3292 41.8626C44.3093 40.4489 44.558 39.0445 45.0622 37.7239C48.7049 39.3296 52.7409 39.8202 56.6609 39.1348C54.5568 41.394 51.6073 42.6804 48.5157 42.6819Z" fill="white" stroke="white" stroke-width="0.1"/>
</svg>
