<svg width="36" height="36" viewBox="0 0 36 36" fill="none" xmlns="http://www.w3.org/2000/svg">
<g filter="url(#filter0_d_723_2846)">
<path d="M3.67081 15.1127C3.67081 22.9253 10.0037 29.2582 17.8163 29.2582C25.6289 29.2582 31.9618 22.9253 31.9618 15.1127C31.9618 7.30012 25.6289 0.967195 17.8163 0.967195C10.0037 0.967195 3.67081 7.30012 3.67081 15.1127ZM5.27169 15.1127C5.27169 8.22209 10.9257 2.56808 17.8163 2.56808C24.7069 2.56808 30.3609 8.22209 30.3609 15.1127C30.3609 22.0033 24.7069 27.6573 17.8163 27.6573C10.9257 27.6573 5.27169 22.0033 5.27169 15.1127Z" fill="#F5F5F5" stroke="#F5F5F5" stroke-width="0.06561"/>
<path d="M9.56261 25.3704L9.57749 25.3444C9.63295 25.2473 9.74996 25.1363 9.91181 25.0158C10.0728 24.896 10.2745 24.7694 10.4956 24.6404C10.7165 24.5116 10.956 24.3808 11.1922 24.2525C11.2165 24.2393 11.2409 24.2261 11.2651 24.2129C11.4754 24.0988 11.6812 23.9871 11.8665 23.8813C12.8398 23.4683 13.8761 23.0095 14.6691 22.4092C15.4632 21.808 16.0181 21.0614 16.0181 20.0727V17.947V17.9294L16.0035 17.9197L15.6492 17.6835L15.6492 17.6835L15.6486 17.683L15.6486 17.683L15.6486 17.683L15.6484 17.6829L15.6479 17.6826L15.6457 17.6812L15.6367 17.6752C15.6287 17.6699 15.617 17.6618 15.6019 17.6511C15.5718 17.6296 15.5286 17.5973 15.4766 17.5544C15.3727 17.4687 15.234 17.341 15.0954 17.1732C14.818 16.8374 14.5419 16.3427 14.5419 15.7031V15.2898V15.274L14.5296 15.2641L14.2358 15.0291C14.1175 14.9108 13.9279 14.7209 13.7676 14.5097C13.6055 14.296 13.479 14.0675 13.479 13.8726C13.479 13.7329 13.5352 13.5909 13.5933 13.482C13.6221 13.428 13.651 13.3829 13.6726 13.3514C13.6834 13.3356 13.6923 13.3233 13.6986 13.315L13.7057 13.3055L13.707 13.3039L14.0009 13.01L14.0145 12.9964L14.0092 12.9778L13.8914 12.5654L13.8913 12.565L13.8904 12.561L13.887 12.5456L13.8739 12.4857C13.8626 12.4336 13.8465 12.3578 13.8271 12.2634C13.7884 12.0745 13.7368 11.8109 13.6852 11.5124C13.5819 10.9148 13.479 10.179 13.479 9.62104C13.479 8.41806 13.8749 7.46807 14.5975 6.81847C15.3205 6.16845 16.3747 5.81567 17.6978 5.81567C18.1669 5.81567 18.5765 5.889 18.8901 5.99837C19.2053 6.10833 19.4174 6.25258 19.5 6.38996C19.5 6.39005 19.5001 6.39014 19.5001 6.39023L19.736 6.80296L19.7454 6.81949H19.7645H20.2369C20.6626 6.81949 21.0821 7.14699 21.3972 7.66727C21.7113 8.18598 21.9165 8.88864 21.9165 9.62104C21.9165 10.5043 21.8134 11.2698 21.7104 11.8145C21.6588 12.0868 21.6073 12.3039 21.5688 12.4527C21.5495 12.5271 21.5334 12.5845 21.5222 12.6232C21.5166 12.6425 21.5122 12.6572 21.5092 12.667L21.5058 12.6781L21.5049 12.6808L21.5047 12.6815L21.5047 12.6816L21.5047 12.6816L21.5047 12.6816L21.5044 12.6826L21.3863 13.0959L21.3815 13.1126L21.3926 13.1259L21.6879 13.4802L21.6878 13.4803L21.6899 13.4824C21.7169 13.5094 21.7741 13.5806 21.8244 13.6741C21.8748 13.7677 21.9165 13.8802 21.9165 13.9907C21.9165 14.3369 21.8013 14.5659 21.6802 14.7155C21.6194 14.7906 21.5568 14.8461 21.5055 14.8866C21.4797 14.9069 21.457 14.9234 21.4383 14.9369L21.4376 14.9375C21.4234 14.9478 21.4099 14.9576 21.4003 14.9661L20.9339 15.1409L20.9126 15.1489V15.1717V15.7031C20.9126 16.3736 20.6649 16.8836 20.4098 17.2262C20.2822 17.3975 20.1529 17.5267 20.0522 17.6129C20.0018 17.6561 19.9588 17.6882 19.927 17.7094C19.911 17.72 19.8983 17.7276 19.8891 17.7324C19.8846 17.7348 19.8814 17.7362 19.8793 17.737H19.8726L19.8644 17.7425L19.5101 17.9787L19.4955 17.9884V18.006V20.1318C19.4955 21.0912 20.0211 21.7643 20.7719 22.2772C21.5214 22.7892 22.4996 23.1448 23.4139 23.4692C23.5523 23.5246 23.6938 23.5799 23.836 23.6355C24.3019 23.8176 24.7765 24.0031 25.1823 24.206C25.447 24.3383 25.6807 24.4773 25.8626 24.6264C26.0446 24.7757 26.1724 24.9333 26.2287 25.1023L26.2393 25.1341L26.2709 25.1227L27.7472 24.5913L27.7789 24.5799L27.7666 24.5485C27.4971 23.8597 26.9437 23.3677 26.2614 22.9746C25.6046 22.5962 24.8244 22.3074 24.0562 22.0231C24.027 22.0123 23.9978 22.0015 23.9686 21.9907C23.9005 21.964 23.8322 21.9374 23.7638 21.9108C23.1489 21.6712 22.5291 21.4297 22.0465 21.1587C21.7785 21.0081 21.5549 20.8496 21.3987 20.6789C21.2427 20.5085 21.1554 20.3278 21.1554 20.1318V18.8475C21.6304 18.4285 22.3894 17.5441 22.512 16.194C23.0476 15.8311 23.5764 15.115 23.5764 13.9907C23.5764 13.5171 23.4015 13.103 23.2251 12.8058C23.403 12.2639 23.6354 11.0878 23.6354 9.6801C23.6354 8.58135 23.3088 7.55637 22.7811 6.76843C22.2558 5.98424 21.5297 5.43276 20.726 5.28023C20.3962 4.92449 19.9212 4.67371 19.4052 4.51154C18.885 4.34804 18.3207 4.27384 17.8158 4.27384C16.0379 4.27384 14.5826 4.80732 13.5715 5.75151C12.5601 6.6959 11.9963 8.04838 11.9963 9.6801C11.9963 10.6812 12.2302 11.9735 12.3489 12.6263C12.1712 12.9242 11.9372 13.3985 11.9372 13.9907C11.9372 14.9432 12.5869 15.7152 13.0013 16.1312C13.1232 17.4841 13.9414 18.4279 14.4763 18.8487V20.1318C14.4763 20.3572 14.3707 20.5749 14.1855 20.7865C14.0002 20.998 13.7375 21.2009 13.4287 21.3957C12.8634 21.7524 12.1499 22.0785 11.4891 22.3805C11.4279 22.4085 11.3672 22.4362 11.3071 22.4638C11.241 22.4929 11.1751 22.5218 11.1097 22.5505C10.4461 22.8416 9.82326 23.1149 9.31059 23.4252C8.74722 23.7662 8.31209 24.1546 8.1015 24.666L8.08949 24.6952L8.11817 24.7084L9.53534 25.3579L9.56261 25.3704Z" fill="#F5F5F5" stroke="#F5F5F5" stroke-width="0.06561"/>
</g>
<defs>
<filter id="filter0_d_723_2846" x="0.398184" y="0.934448" width="34.8364" height="34.8366" filterUnits="userSpaceOnUse" color-interpolation-filters="sRGB">
<feFlood flood-opacity="0" result="BackgroundImageFix"/>
<feColorMatrix in="SourceAlpha" type="matrix" values="0 0 0 0 0 0 0 0 0 0 0 0 0 0 0 0 0 0 127 0" result="hardAlpha"/>
<feOffset dy="3.24"/>
<feGaussianBlur stdDeviation="1.62"/>
<feComposite in2="hardAlpha" operator="out"/>
<feColorMatrix type="matrix" values="0 0 0 0 0 0 0 0 0 0 0 0 0 0 0 0 0 0 0.25 0"/>
<feBlend mode="normal" in2="BackgroundImageFix" result="effect1_dropShadow_723_2846"/>
<feBlend mode="normal" in="SourceGraphic" in2="effect1_dropShadow_723_2846" result="shape"/>
</filter>
</defs>
</svg>
