<svg width="27" height="27" viewBox="0 0 27 27" fill="none" xmlns="http://www.w3.org/2000/svg">
<path d="M14.3366 13.5C15.7346 13.5 16.8679 14.6333 16.8679 16.0313L16.8666 17.2941C17.0402 20.3933 14.6531 21.9389 10.2266 21.9389C5.81431 21.9389 3.375 20.4135 3.375 17.3383V16.0313C3.375 14.6333 4.50828 13.5 5.90625 13.5H14.3366ZM21.0877 13.5C22.4856 13.5 23.6189 14.6333 23.6189 16.0313L23.6176 16.9198C23.7702 19.6999 21.661 21.0938 17.8058 21.0938C17.2825 21.0938 16.7905 21.0683 16.331 21.0172C16.8215 20.5661 17.1869 20.0275 17.4197 19.4018L17.8058 19.4063C20.8167 19.4063 22.0204 18.6108 21.9314 16.9661V16.0313C21.9314 15.5653 21.5536 15.1875 21.0877 15.1875L17.6053 15.1875C17.4345 14.5238 17.0668 13.9391 16.5683 13.4993L21.0877 13.5ZM14.3366 15.1875H5.90625C5.44026 15.1875 5.0625 15.5653 5.0625 16.0313V17.3383C5.0625 19.2722 6.6284 20.2514 10.2266 20.2514C13.8105 20.2514 15.2885 19.2944 15.1804 17.3413V16.0313C15.1804 15.5653 14.8026 15.1875 14.3366 15.1875ZM10.125 3.375C12.4553 3.375 14.3444 5.2641 14.3444 7.59443C14.3444 9.92476 12.4553 11.8139 10.125 11.8139C7.79467 11.8139 5.90557 9.92476 5.90557 7.59443C5.90557 5.2641 7.79467 3.375 10.125 3.375ZM18.5625 5.0625C20.4265 5.0625 21.9375 6.57354 21.9375 8.4375C21.9375 10.3015 20.4265 11.8125 18.5625 11.8125C16.6985 11.8125 15.1875 10.3015 15.1875 8.4375C15.1875 6.57354 16.6985 5.0625 18.5625 5.0625ZM10.125 5.0625C8.72665 5.0625 7.59307 6.19608 7.59307 7.59443C7.59307 8.99278 8.72665 10.1264 10.125 10.1264C11.5233 10.1264 12.6569 8.99278 12.6569 7.59443C12.6569 6.19608 11.5233 5.0625 10.125 5.0625ZM18.5625 6.75C17.6305 6.75 16.875 7.50552 16.875 8.4375C16.875 9.36948 17.6305 10.125 18.5625 10.125C19.4945 10.125 20.25 9.36948 20.25 8.4375C20.25 7.50552 19.4945 6.75 18.5625 6.75Z" fill="#212121"/>
</svg>
