<svg width="14" height="14" viewBox="0 0 14 14" fill="none" xmlns="http://www.w3.org/2000/svg">
<path d="M11.4279 13.444H2.37194C1.83727 13.444 1.32449 13.2316 0.946424 12.8535C0.568354 12.4754 0.355957 11.9626 0.355957 11.428V3.88393C0.355957 3.34925 0.568354 2.83647 0.946424 2.4584C1.32449 2.08032 1.83727 1.86792 2.37194 1.86792H2.87593C3.0096 1.86792 3.13779 1.92102 3.23231 2.01554C3.32683 2.11006 3.37993 2.23825 3.37993 2.37192V3.12793C3.37993 3.19476 3.40648 3.25886 3.45373 3.30612C3.50099 3.35338 3.56509 3.37993 3.63193 3.37993C3.69876 3.37993 3.76285 3.35338 3.81011 3.30612C3.85737 3.25886 3.88392 3.19476 3.88392 3.12793V2.37192C3.88392 2.23825 3.93702 2.11006 4.03154 2.01554C4.12606 1.92102 4.25425 1.86792 4.38792 1.86792H9.41189C9.54556 1.86792 9.67375 1.92102 9.76827 2.01554C9.86278 2.11006 9.91588 2.23825 9.91588 2.37192V3.12793C9.91588 3.19476 9.94243 3.25886 9.98969 3.30612C10.0369 3.35338 10.101 3.37993 10.1679 3.37993C10.2347 3.37993 10.2988 3.35338 10.3461 3.30612C10.3933 3.25886 10.4199 3.19476 10.4199 3.12793V2.37192C10.4199 2.23825 10.473 2.11006 10.5675 2.01554C10.662 1.92102 10.7902 1.86792 10.9239 1.86792H11.4279C11.9625 1.86792 12.4753 2.08032 12.8534 2.4584C13.2315 2.83647 13.4438 3.34925 13.4438 3.88393V11.428C13.4438 11.9626 13.2315 12.4754 12.8534 12.8535C12.4753 13.2316 11.9625 13.444 11.4279 13.444ZM2.37194 2.87593C2.1046 2.87593 1.84821 2.98213 1.65918 3.17116C1.47015 3.3602 1.36395 3.61659 1.36395 3.88393V11.428C1.36395 11.6953 1.47015 11.9517 1.65918 12.1407C1.84821 12.3298 2.1046 12.436 2.37194 12.436H11.4279C11.6952 12.436 11.9516 12.3298 12.1406 12.1407C12.3297 11.9517 12.4359 11.6953 12.4359 11.428V3.88393C12.4359 3.61659 12.3297 3.3602 12.1406 3.17116C11.9516 2.98213 11.6952 2.87593 11.4279 2.87593V3.12793C11.4279 3.4621 11.2951 3.78259 11.0588 4.01889C10.8225 4.25518 10.5021 4.38793 10.1679 4.38793C9.83371 4.38793 9.51323 4.25518 9.27694 4.01889C9.04064 3.78259 8.90789 3.4621 8.90789 3.12793V2.87593H4.89191V3.12793C4.89191 3.4621 4.75916 3.78259 4.52287 4.01889C4.28658 4.25518 3.96609 4.38793 3.63193 4.38793C3.29776 4.38793 2.97727 4.25518 2.74098 4.01889C2.50469 3.78259 2.37194 3.4621 2.37194 3.12793V2.87593Z" fill="#949494"/>
<path d="M12.4545 6H1.54545C1.40079 6 1.26205 5.94732 1.15976 5.85355C1.05747 5.75979 1 5.63261 1 5.5C1 5.36739 1.05747 5.24021 1.15976 5.14645C1.26205 5.05268 1.40079 5 1.54545 5H7H12.4545C12.5992 5 12.7379 5.05268 12.8402 5.14645C12.9425 5.24021 13 5.36739 13 5.5C13 5.63261 12.9425 5.75979 12.8402 5.85355C12.7379 5.94732 12.5992 6 12.4545 6Z" fill="#949494"/>
<path d="M3.63206 4.38798C3.29789 4.38798 2.97741 4.25523 2.74111 4.01893C2.50482 3.78263 2.37207 3.46215 2.37207 3.12797V1.61596C2.37207 1.28179 2.50482 0.961302 2.74111 0.725004C2.97741 0.488707 3.29789 0.355957 3.63206 0.355957C3.96623 0.355957 4.28671 0.488707 4.523 0.725004C4.7593 0.961302 4.89205 1.28179 4.89205 1.61596V3.12797C4.89205 3.46215 4.7593 3.78263 4.523 4.01893C4.28671 4.25523 3.96623 4.38798 3.63206 4.38798ZM3.63206 1.36396C3.56522 1.36396 3.50113 1.39051 3.45387 1.43777C3.40661 1.48503 3.38006 1.54913 3.38006 1.61596V3.12797C3.38006 3.19481 3.40661 3.2589 3.45387 3.30616C3.50113 3.35342 3.56522 3.37997 3.63206 3.37997C3.69889 3.37997 3.76299 3.35342 3.81025 3.30616C3.85751 3.2589 3.88406 3.19481 3.88406 3.12797V1.61596C3.88406 1.54913 3.85751 1.48503 3.81025 1.43777C3.76299 1.39051 3.69889 1.36396 3.63206 1.36396Z" fill="#949494"/>
<path d="M10.1677 4.38798C9.83353 4.38798 9.51305 4.25523 9.27676 4.01893C9.04046 3.78263 8.90771 3.46215 8.90771 3.12797V1.61596C8.90771 1.28179 9.04046 0.961302 9.27676 0.725004C9.51305 0.488707 9.83353 0.355957 10.1677 0.355957C10.5019 0.355957 10.8224 0.488707 11.0586 0.725004C11.2949 0.961302 11.4277 1.28179 11.4277 1.61596V3.12797C11.4277 3.46215 11.2949 3.78263 11.0586 4.01893C10.8224 4.25523 10.5019 4.38798 10.1677 4.38798ZM10.1677 1.36396C10.1009 1.36396 10.0368 1.39051 9.98951 1.43777C9.94225 1.48503 9.9157 1.54913 9.9157 1.61596V3.12797C9.9157 3.19481 9.94225 3.2589 9.98951 3.30616C10.0368 3.35342 10.1009 3.37997 10.1677 3.37997C10.2345 3.37997 10.2986 3.35342 10.3459 3.30616C10.3932 3.2589 10.4197 3.19481 10.4197 3.12797V1.61596C10.4197 1.54913 10.3932 1.48503 10.3459 1.43777C10.2986 1.39051 10.2345 1.36396 10.1677 1.36396Z" fill="#949494"/>
</svg>
