<svg width="17" height="18" viewBox="0 0 17 18" fill="none" xmlns="http://www.w3.org/2000/svg">
<path d="M12.7943 9.6062L7.93036 14.4702C7.86702 14.5272 7.79419 14.5557 7.71186 14.5557C7.62953 14.5557 7.5567 14.5272 7.49337 14.4702L4.75742 11.7342C4.70043 11.6709 4.67193 11.598 4.67193 11.5157C4.67193 11.4334 4.70043 11.3637 4.75742 11.3067L5.19441 10.8697C5.25141 10.8127 5.32108 10.7842 5.40341 10.7842C5.48574 10.7842 5.55857 10.8127 5.62191 10.8697L7.71186 12.9597L11.9298 8.74171C11.9931 8.68471 12.0659 8.65621 12.1483 8.65621C12.2306 8.65621 12.3003 8.68471 12.3573 8.74171L12.7943 9.1787C12.8513 9.2357 12.8798 9.30537 12.8798 9.3877C12.8798 9.47004 12.8513 9.54287 12.7943 9.6062ZM1.63199 16.2562H15.0077V6.52822H1.63199V16.2562ZM5.27991 4.70422V1.96824C5.27991 1.87957 5.25141 1.80674 5.19441 1.74974C5.13742 1.69274 5.06458 1.66424 4.97592 1.66424H4.36793C4.27927 1.66424 4.20644 1.69274 4.14944 1.74974C4.09244 1.80674 4.06394 1.87957 4.06394 1.96824V4.70422C4.06394 4.79289 4.09244 4.86572 4.14944 4.92272C4.20644 4.97972 4.27927 5.00822 4.36793 5.00822H4.97592C5.06458 5.00822 5.13742 4.97972 5.19441 4.92272C5.25141 4.86572 5.27991 4.79289 5.27991 4.70422ZM12.5758 4.70422V1.96824C12.5758 1.87957 12.5473 1.80674 12.4903 1.74974C12.4333 1.69274 12.3604 1.66424 12.2718 1.66424H11.6638C11.5751 1.66424 11.5023 1.69274 11.4453 1.74974C11.3883 1.80674 11.3598 1.87957 11.3598 1.96824V4.70422C11.3598 4.79289 11.3883 4.86572 11.4453 4.92272C11.5023 4.97972 11.5751 5.00822 11.6638 5.00822H12.2718C12.3604 5.00822 12.4333 4.97972 12.4903 4.92272C12.5473 4.86572 12.5758 4.79289 12.5758 4.70422ZM16.2237 4.09623V16.2562C16.2237 16.5855 16.1034 16.8705 15.8627 17.1112C15.622 17.3518 15.337 17.4722 15.0077 17.4722H1.63199C1.30266 17.4722 1.01767 17.3518 0.777008 17.1112C0.536346 16.8705 0.416016 16.5855 0.416016 16.2562V4.09623C0.416016 3.76689 0.536346 3.4819 0.777008 3.24123C1.01767 3.00056 1.30266 2.88023 1.63199 2.88023H2.84796V1.96824C2.84796 1.55024 2.99679 1.19241 3.29445 0.89474C3.59212 0.597075 3.94994 0.448242 4.36793 0.448242H4.97592C5.39391 0.448242 5.75174 0.597075 6.0494 0.89474C6.34706 1.19241 6.49589 1.55024 6.49589 1.96824V2.88023H10.1438V1.96824C10.1438 1.55024 10.2926 1.19241 10.5903 0.89474C10.888 0.597075 11.2458 0.448242 11.6638 0.448242H12.2718C12.6898 0.448242 13.0476 0.597075 13.3452 0.89474C13.6429 1.19241 13.7917 1.55024 13.7917 1.96824V2.88023H15.0077C15.337 2.88023 15.622 3.00056 15.8627 3.24123C16.1034 3.4819 16.2237 3.76689 16.2237 4.09623Z" fill="black"/>
</svg>
