<svg width="22" height="23" viewBox="0 0 22 23" fill="none" xmlns="http://www.w3.org/2000/svg">
<path d="M17.4562 9.33763C17.9403 12.2488 15.9728 15.0011 13.0616 15.4852C10.1505 15.9692 7.39817 14.0017 6.91412 11.0906C6.43007 8.1794 8.3976 5.42705 11.3087 4.943C14.2198 4.45894 16.9722 6.42648 17.4562 9.33763Z" stroke="#0E538C" stroke-width="1.5"/>
<path d="M15.6948 1.6001L19.3399 1.31702" stroke="#0E538C" stroke-width="1.5" stroke-linecap="round"/>
<path d="M20.001 5.2085L19.4013 1.60194" stroke="#0E538C" stroke-width="1.5" stroke-linecap="round" stroke-linejoin="round"/>
<path d="M15.7928 5.90796L19.0677 1.32611" stroke="#0E538C" stroke-width="1.5" stroke-linecap="round" stroke-linejoin="round"/>
<path d="M11.4369 11.969C11.4369 14.9201 9.04452 17.3124 6.09343 17.3124C3.14234 17.3124 0.749999 14.9201 0.749999 11.969C0.749999 9.01783 3.14234 6.62549 6.09343 6.62549C9.04452 6.62549 11.4369 9.01783 11.4369 11.969Z" stroke="#0E538C" stroke-width="1.5"/>
<path d="M6.09375 21.7183V18.0622" stroke="#0E538C" stroke-width="1.5" stroke-linecap="round" stroke-linejoin="round"/>
<path d="M4.26562 19.8906H7.92168" stroke="#0E538C" stroke-width="1.5" stroke-linecap="round" stroke-linejoin="round"/>
</svg>
