<svg width="26" height="26" viewBox="0 0 26 26" fill="none" xmlns="http://www.w3.org/2000/svg">
<path d="M23.9277 6.52285C23.3139 5.90905 22.3041 5.90905 21.6903 6.52285L13.196 15.0171L8.68164 10.4829C8.06784 9.86906 7.05804 9.86906 6.44424 10.4829C5.83044 11.0967 5.83044 12.1065 6.44424 12.7203L12.0872 18.3633C12.404 18.6801 12.8 18.8187 13.2158 18.8187C13.6316 18.8187 14.0276 18.6603 14.3444 18.3633L23.9673 8.74045C24.5613 8.14645 24.5613 7.13665 23.9277 6.52285Z" fill="#1F5389"/>
<path d="M21.9869 11.2554C22.0661 11.7306 22.1057 12.2454 22.1057 12.7404C22.1057 17.9874 17.8487 22.2444 12.6017 22.2444C7.35467 22.2444 3.09767 17.9874 3.09767 12.7404C3.09767 7.49334 7.35467 3.23634 12.6017 3.23634C15.8093 3.23634 18.6407 4.84014 20.3633 7.27554L20.9375 6.70134C19.0763 4.12734 16.0271 2.44434 12.6017 2.44434C6.91907 2.44434 2.30566 7.05774 2.30566 12.7404C2.30566 18.423 6.91907 23.0364 12.6017 23.0364C18.2843 23.0364 22.8977 18.423 22.8977 12.7404C22.8977 11.988 22.8185 11.2752 22.6601 10.5821L21.9869 11.2554Z" fill="#2C3E50" stroke="black" stroke-width="0.5"/>
</svg>
