<svg width="21" height="21" viewBox="0 0 21 21" fill="none" xmlns="http://www.w3.org/2000/svg">
<g clip-path="url(#clip0_761_7836)">
<path d="M17.5513 1.30003C17.5516 1.21424 17.535 1.12923 17.5023 1.0499C17.4696 0.970572 17.4216 0.898497 17.3609 0.837832C17.3002 0.777167 17.2282 0.729112 17.1488 0.696439C17.0695 0.663767 16.9845 0.647122 16.8987 0.647466L3.90197 0.647466C3.81618 0.647122 3.73117 0.663767 3.65184 0.696439C3.57251 0.729112 3.50044 0.777167 3.43977 0.837832C3.37911 0.898497 3.33105 0.970572 3.29838 1.0499C3.26571 1.12923 3.24906 1.21424 3.24941 1.30003L3.24941 19.4991C3.24975 19.5844 3.2669 19.6689 3.29988 19.7476C3.33286 19.8263 3.38102 19.8978 3.44162 19.9579C3.50221 20.018 3.57405 20.0656 3.65304 20.098C3.73203 20.1303 3.81662 20.1468 3.90197 20.1465L16.8987 20.1465C16.9841 20.1468 17.0686 20.1303 17.1476 20.098C17.2266 20.0656 17.2985 20.018 17.3591 19.9579C17.4197 19.8978 17.4678 19.8263 17.5008 19.7476C17.5338 19.6689 17.5509 19.5844 17.5513 19.4991L17.5513 1.30003ZM16.2513 1.9474L16.2513 9.74959H13.5852C13.2823 8.27027 11.9635 7.14843 10.3977 7.14843C8.83197 7.14843 7.51709 8.27027 7.2155 9.74959L4.54934 9.74959L4.54934 1.9474L7.1492 1.9474V3.9012C7.14955 3.98655 7.1667 4.071 7.19967 4.14973C7.23265 4.22846 7.28082 4.29992 7.34141 4.36003C7.40201 4.42015 7.47385 4.46774 7.55284 4.50008C7.63183 4.53243 7.71642 4.54891 7.80177 4.54856L12.9989 4.54856C13.0843 4.54891 13.1688 4.53243 13.2478 4.50008C13.3268 4.46774 13.3987 4.42015 13.4593 4.36003C13.5199 4.29992 13.568 4.22846 13.601 4.14973C13.634 4.071 13.6511 3.98655 13.6515 3.9012V1.9474L16.2513 1.9474ZM16.2513 11.0495V18.8517H13.6515V16.8979C13.6511 16.8126 13.634 16.7281 13.601 16.6494C13.568 16.5707 13.5199 16.4992 13.4593 16.4391C13.3987 16.379 13.3268 16.3314 13.2478 16.299C13.1688 16.2667 13.0843 16.2502 12.9989 16.2506H7.80177C7.71642 16.2502 7.63183 16.2667 7.55284 16.299C7.47385 16.3314 7.40201 16.379 7.34141 16.4391C7.28082 16.4992 7.23265 16.5707 7.19967 16.6494C7.1667 16.7281 7.14955 16.8126 7.1492 16.8979V18.8517H4.54934L4.54934 11.0495L7.2168 11.0495C7.52034 12.5282 8.83392 13.6507 10.3977 13.6507C11.9616 13.6507 13.2797 12.5275 13.5839 11.0495H16.2513ZM12.3502 1.9474V3.24863L8.45044 3.24863V1.9474L12.3502 1.9474ZM12.3502 10.397C12.3514 10.6537 12.3016 10.9082 12.2039 11.1457C12.1062 11.3831 11.9624 11.5989 11.7809 11.7805C11.5994 11.9622 11.3837 12.1061 11.1463 12.2039C10.9089 12.3018 10.6545 12.3517 10.3977 12.3508C10.1412 12.3515 9.88715 12.3015 9.65011 12.2035C9.41308 12.1055 9.19781 11.9615 9.01675 11.7798C8.83569 11.5982 8.69242 11.3824 8.59521 11.1451C8.49801 10.9077 8.44881 10.6534 8.45044 10.397C8.44888 10.1408 8.49819 9.88689 8.5955 9.64993C8.69281 9.41297 8.83619 9.19768 9.01733 9.01655C9.19846 8.83542 9.41374 8.69204 9.6507 8.59473C9.88766 8.49742 10.1416 8.44811 10.3977 8.44966C10.6542 8.44803 10.9084 8.49724 11.1457 8.59446C11.3829 8.69168 11.5986 8.83497 11.7802 9.01605C11.9617 9.19713 12.1056 9.41241 12.2034 9.64943C12.3013 9.88646 12.3512 10.1405 12.3502 10.397ZM12.3502 17.5518V18.8517L8.45044 18.8517V17.5518L12.3502 17.5518Z" fill="#1F5389"/>
</g>
<defs>
<clipPath id="clip0_761_7836">
<rect width="20.8" height="20.8" fill="white" transform="matrix(0 1 -1 0 20.7998 0)"/>
</clipPath>
</defs>
</svg>
