<svg width="36" height="35" viewBox="0 0 36 35" fill="none" xmlns="http://www.w3.org/2000/svg">
<g filter="url(#filter0_d_723_2852)">
<path fill-rule="evenodd" clip-rule="evenodd" d="M18.1061 1.9683C11.4026 1.9683 5.9683 7.40258 5.9683 14.1061C5.9683 20.8096 11.4026 26.244 18.1061 26.244C20.8404 26.244 23.3607 25.3412 25.3895 23.8169C25.8241 23.4904 26.441 23.578 26.7675 24.0126C27.0939 24.4472 27.0064 25.064 26.5718 25.3905C24.2139 27.1621 21.2813 28.2123 18.1061 28.2123C10.3155 28.2123 4 21.8968 4 14.1061C4 6.31553 10.3155 0 18.1061 0C25.8968 0 32.2123 6.31553 32.2123 14.1061C32.2123 16.1105 31.7937 18.0198 31.0382 19.749C30.8206 20.2471 30.2403 20.4744 29.7424 20.2568C29.2442 20.0391 29.0168 19.459 29.2345 18.9609C29.8836 17.4755 30.244 15.8342 30.244 14.1061C30.244 7.40258 24.8098 1.9683 18.1061 1.9683Z" fill="#F5F5F5"/>
</g>
<defs>
<filter id="filter0_d_723_2852" x="0.760001" y="0" width="34.6924" height="34.6923" filterUnits="userSpaceOnUse" color-interpolation-filters="sRGB">
<feFlood flood-opacity="0" result="BackgroundImageFix"/>
<feColorMatrix in="SourceAlpha" type="matrix" values="0 0 0 0 0 0 0 0 0 0 0 0 0 0 0 0 0 0 127 0" result="hardAlpha"/>
<feOffset dy="3.24"/>
<feGaussianBlur stdDeviation="1.62"/>
<feComposite in2="hardAlpha" operator="out"/>
<feColorMatrix type="matrix" values="0 0 0 0 0 0 0 0 0 0 0 0 0 0 0 0 0 0 0.25 0"/>
<feBlend mode="normal" in2="BackgroundImageFix" result="effect1_dropShadow_723_2852"/>
<feBlend mode="normal" in="SourceGraphic" in2="effect1_dropShadow_723_2852" result="shape"/>
</filter>
</defs>
</svg>
