<svg width="20" height="20" viewBox="0 0 20 20" fill="none" xmlns="http://www.w3.org/2000/svg">
<path d="M3.5998 14.0001H10.0798C10.3998 15.3601 11.6798 16.4001 13.1998 16.4001C14.7198 16.4001 15.9198 15.3601 16.3198 14.0001H16.3998C16.8798 14.0001 17.1998 13.6801 17.1998 13.2001C17.1998 12.7201 16.8798 12.4001 16.3998 12.4001H16.3198C15.9998 11.0401 14.7198 10.0001 13.1998 10.0001C11.6798 10.0001 10.4798 11.0401 10.0798 12.4001H3.5998C3.1198 12.4001 2.7998 12.7201 2.7998 13.2001C2.7998 13.6801 3.1198 14.0001 3.5998 14.0001ZM13.1998 11.6001C14.0798 11.6001 14.7998 12.3201 14.7998 13.2001C14.7998 14.0801 14.0798 14.8001 13.1998 14.8001C12.3198 14.8001 11.5998 14.0801 11.5998 13.2001C11.5998 12.3201 12.3198 11.6001 13.1998 11.6001ZM3.5998 7.6001H3.6798C3.9998 8.9601 5.2798 10.0001 6.7998 10.0001C8.3198 10.0001 9.5198 8.9601 9.9198 7.6001H16.3998C16.8798 7.6001 17.1998 7.2801 17.1998 6.8001C17.1998 6.3201 16.8798 6.0001 16.3998 6.0001H9.9198C9.5998 4.6401 8.3198 3.6001 6.7998 3.6001C5.2798 3.6001 4.0798 4.6401 3.6798 6.0001H3.5998C3.1198 6.0001 2.7998 6.3201 2.7998 6.8001C2.7998 7.2801 3.1198 7.6001 3.5998 7.6001ZM6.7998 5.2001C7.6798 5.2001 8.3998 5.9201 8.3998 6.8001C8.3998 7.6801 7.6798 8.4001 6.7998 8.4001C5.9198 8.4001 5.1998 7.6801 5.1998 6.8001C5.1998 5.9201 5.9198 5.2001 6.7998 5.2001Z" fill="#8A8A8A"/>
</svg>
