<svg width="34" height="35" viewBox="0 0 34 35" fill="none" xmlns="http://www.w3.org/2000/svg">
<g filter="url(#filter0_d_723_2853)">
<path d="M3.6838 17.2552C4.88271 21.7226 8.40235 25.2408 12.8671 26.4356C12.8772 26.4382 12.8873 26.4399 12.8975 26.4428C12.9061 26.4449 12.9145 26.4475 12.9234 26.4489C13.9991 26.7356 15.1094 26.8825 16.2245 26.8825C17.0744 26.8825 17.9263 26.7976 18.7673 26.6299C18.7875 26.6316 18.8074 26.6345 18.8273 26.6345C18.9555 26.6345 19.0805 26.5967 19.1925 26.5309C19.3259 26.4997 21.8363 26.3189 21.9691 26.2834C28.8854 24.4286 30.629 17.446 28.7763 10.5286C28.2563 8.58977 27.3106 6.8516 26.0577 5.4027C25.9982 5.17378 25.8291 4.98584 25.6027 4.9053C23.211 2.41338 19.8594 0.900391 16.2372 0.900391C15.105 0.900391 13.9711 1.05022 12.8674 1.34583C10.6056 1.95235 8.64542 3.12643 7.09288 4.6706C7.06141 4.69745 7.03196 4.72603 7.00598 4.75749C5.62174 6.1605 4.57035 7.86084 3.93582 9.72141C3.91013 9.77828 3.88963 9.83717 3.87924 9.89895C3.12924 12.205 3.01145 14.7439 3.6838 17.2552ZM5.07815 16.8813C4.64858 15.2774 4.58334 13.6611 4.82612 12.1175C6.00713 14.2797 7.46008 16.1253 9.16967 17.6103C9.30651 17.7289 9.47481 17.7872 9.64282 17.7872C9.84461 17.7872 10.0453 17.7029 10.1879 17.539C10.4494 17.2382 10.4171 16.782 10.1163 16.5208C8.17342 14.8331 6.58075 12.6334 5.37289 9.98786C5.80823 8.78319 6.43958 7.65761 7.24039 6.65934C8.59259 10.474 11.6945 13.3831 15.6356 14.4755C16.0764 16.177 16.1021 17.9157 15.7436 19.5681C14.3224 19.1813 12.9662 18.5649 11.7037 17.7295C11.3712 17.5098 10.9237 17.6007 10.7035 17.933C10.4835 18.2653 10.5747 18.7133 10.907 18.9333C12.2927 19.8505 13.7831 20.5277 15.3458 20.9552C14.8192 22.4163 13.9777 23.7699 12.8495 24.9223C9.06776 23.763 6.10788 20.7194 5.07815 16.8813ZM23.4116 26.6299C24.5496 24.7459 20.958 25.0955 21.4173 23.1079C21.507 22.7196 20.967 22.909 20.5785 22.8192C20.1902 22.7288 20.0636 22.4306 19.9738 22.8192C19.4357 25.1466 19.9769 23.0453 18.4284 25.2246C17.6989 25.3663 16.961 25.4394 16.2245 25.4394C15.6333 25.4394 15.0444 25.3877 14.4615 25.2965C17.0894 22.2174 18.0574 18.0756 17.0323 14.1155C18.3175 12.8519 19.855 11.9477 21.5118 11.4388C21.778 12.4373 21.9327 13.4679 21.9691 14.513C21.9826 14.9027 22.3028 15.2096 22.6899 15.2096C22.6983 15.2096 22.707 15.2096 22.7153 15.2093C23.1137 15.1954 23.4252 14.8611 23.4116 14.463C23.3721 13.3233 23.2046 12.1983 22.9168 11.1071C24.4087 10.8574 25.959 10.9168 27.4798 11.3083C29.5004 19.9324 28.599 24.5237 23.4116 26.6299ZM13.241 2.74017C14.2228 2.47718 15.2309 2.34381 16.2372 2.34381C18.8418 2.34381 21.2892 3.22314 23.2549 4.73209C19.9491 4.68157 16.8686 5.35478 14.2453 6.71679C13.8914 6.90039 13.7537 7.33601 13.9373 7.68994C14.0658 7.93734 14.3175 8.07938 14.5785 8.07938C14.6905 8.07938 14.8042 8.05311 14.9104 7.99797C17.7514 6.52337 21.1968 5.92868 24.8943 6.26586C25.78 7.27106 26.4965 8.43706 26.9951 9.7243C25.3239 9.41396 23.6374 9.45033 22.0251 9.81032C21.9428 9.80715 21.8588 9.81552 21.7757 9.84266C21.7321 9.8568 21.6916 9.87557 21.6527 9.89664C19.564 10.431 17.6206 11.5144 16.0222 13.086C14.2788 12.6028 12.7222 11.7185 11.4503 10.5315C12.0109 9.96823 12.6212 9.45091 13.2745 8.99104C13.6004 8.76153 13.6786 8.31148 13.4491 7.98555C13.2196 7.65963 12.7696 7.58197 12.4436 7.8109C11.7352 8.30946 11.0718 8.86893 10.4615 9.47805C9.50657 8.31465 8.78774 6.94889 8.36828 5.44369C9.7046 4.19485 11.355 3.24595 13.241 2.74017Z" fill="#C8DBFF"/>
</g>
<g filter="url(#filter1_d_723_2853)">
<path d="M24.1186 14.8061C22.3722 14.8061 20.6973 15.4999 19.4624 16.7348C18.2275 17.9696 17.5337 19.6445 17.5337 21.3908C17.5337 23.1372 18.2275 24.8121 19.4624 26.0469C20.6973 27.2818 22.3722 27.9756 24.1186 27.9756C25.865 27.9756 27.5399 27.2818 28.7748 26.0469C30.0097 24.8121 30.7035 23.1372 30.7035 21.3908C30.7035 19.6445 30.0097 17.9696 28.7748 16.7348C27.5399 15.4999 25.865 14.8061 24.1186 14.8061ZM27.4766 22.2139H24.9417V24.7488H23.2955V22.2139H20.7605V20.5678H23.2955V18.0329C23.2955 18.0329 24.2988 18.0329 24.9417 18.0329V20.5678H27.4766C27.4766 21.2106 27.4766 21.5711 27.4766 22.2139Z" fill="#C8DBFF"/>
</g>
<defs>
<filter id="filter0_d_723_2853" x="0.00169992" y="0.900391" width="32.7056" height="32.4621" filterUnits="userSpaceOnUse" color-interpolation-filters="sRGB">
<feFlood flood-opacity="0" result="BackgroundImageFix"/>
<feColorMatrix in="SourceAlpha" type="matrix" values="0 0 0 0 0 0 0 0 0 0 0 0 0 0 0 0 0 0 127 0" result="hardAlpha"/>
<feOffset dy="3.24"/>
<feGaussianBlur stdDeviation="1.62"/>
<feComposite in2="hardAlpha" operator="out"/>
<feColorMatrix type="matrix" values="0 0 0 0 0 0 0 0 0 0 0 0 0 0 0 0 0 0 0.25 0"/>
<feBlend mode="normal" in2="BackgroundImageFix" result="effect1_dropShadow_723_2853"/>
<feBlend mode="normal" in="SourceGraphic" in2="effect1_dropShadow_723_2853" result="shape"/>
</filter>
<filter id="filter1_d_723_2853" x="14.2937" y="14.8062" width="19.6499" height="19.6494" filterUnits="userSpaceOnUse" color-interpolation-filters="sRGB">
<feFlood flood-opacity="0" result="BackgroundImageFix"/>
<feColorMatrix in="SourceAlpha" type="matrix" values="0 0 0 0 0 0 0 0 0 0 0 0 0 0 0 0 0 0 127 0" result="hardAlpha"/>
<feOffset dy="3.24"/>
<feGaussianBlur stdDeviation="1.62"/>
<feComposite in2="hardAlpha" operator="out"/>
<feColorMatrix type="matrix" values="0 0 0 0 0 0 0 0 0 0 0 0 0 0 0 0 0 0 0.25 0"/>
<feBlend mode="normal" in2="BackgroundImageFix" result="effect1_dropShadow_723_2853"/>
<feBlend mode="normal" in="SourceGraphic" in2="effect1_dropShadow_723_2853" result="shape"/>
</filter>
</defs>
</svg>
